<svg width="500" height="500" viewBox="0 0 500 500" fill="none" xmlns="http://www.w3.org/2000/svg">
<path d="M500 382.4H0V382.65H500V382.4Z" fill="#EBEBEB"/>
<path d="M85.58 391.92H52.46V392.17H85.58V391.92Z" fill="#EBEBEB"/>
<path d="M225 392.05H171.14V392.3H225V392.05Z" fill="#EBEBEB"/>
<path d="M124.96 397.08H105.77V397.33H124.96V397.08Z" fill="#EBEBEB"/>
<path d="M446 396.96H426.77V397.21H446V396.96Z" fill="#EBEBEB"/>
<path d="M417.86 396.96H387.57V397.21H417.86V396.96Z" fill="#EBEBEB"/>
<path d="M370.89 395.31H328.33V395.56H370.89V395.31Z" fill="#EBEBEB"/>
<path d="M237 337.8H43.91C42.3973 337.797 40.9476 337.195 39.8789 336.124C38.8102 335.053 38.21 333.603 38.21 332.09V60.66C38.2232 59.156 38.8292 57.718 39.8964 56.6582C40.9637 55.5985 42.406 55.0026 43.91 55H237C238.514 55 239.967 55.6016 241.038 56.6724C242.108 57.7433 242.71 59.1956 242.71 60.71V332.09C242.71 333.604 242.108 335.057 241.038 336.128C239.967 337.198 238.514 337.8 237 337.8ZM43.91 55.2C42.4637 55.2026 41.0774 55.7791 40.0557 56.8027C39.0339 57.8264 38.46 59.2136 38.46 60.66V332.09C38.46 333.536 39.0339 334.924 40.0557 335.947C41.0774 336.971 42.4637 337.547 43.91 337.55H237C238.447 337.547 239.835 336.971 240.858 335.948C241.881 334.924 242.457 333.537 242.46 332.09V60.66C242.457 59.2127 241.881 57.8255 240.858 56.8021C239.835 55.7787 238.447 55.2026 237 55.2H43.91Z" fill="#EBEBEB"/>
<path d="M453.31 337.8H260.21C258.696 337.797 257.246 337.195 256.175 336.125C255.105 335.054 254.503 333.604 254.5 332.09V60.66C254.516 59.1551 255.124 57.7171 256.193 56.6576C257.262 55.5981 258.705 55.0025 260.21 55H453.31C454.812 55.0052 456.252 55.6022 457.317 56.6617C458.382 57.7212 458.987 59.1578 459 60.66V332.09C459 333.601 458.401 335.05 457.335 336.121C456.268 337.191 454.821 337.795 453.31 337.8ZM260.21 55.2C258.763 55.2026 257.375 55.7787 256.352 56.8021C255.329 57.8255 254.753 59.2127 254.75 60.66V332.09C254.753 333.537 255.329 334.924 256.352 335.948C257.375 336.971 258.763 337.547 260.21 337.55H453.31C454.757 337.547 456.145 336.971 457.168 335.948C458.191 334.924 458.767 333.537 458.77 332.09V60.66C458.767 59.2127 458.191 57.8255 457.168 56.8021C456.145 55.7787 454.757 55.2026 453.31 55.2H260.21Z" fill="#EBEBEB"/>
<path d="M302.22 382.4H330.54V241.5H302.22V382.4Z" fill="#E6E6E6"/>
<path d="M307.59 382.4H302.21V367.1H313.23L307.59 382.4Z" fill="#F0F0F0"/>
<path d="M408.06 382.4H436.38V241.5H408.06V382.4Z" fill="#E6E6E6"/>
<path d="M302.22 373.01H412.76V241.5H302.22V373.01Z" fill="#F0F0F0"/>
<path d="M306.39 328.31V353.88H355.68V328.31H306.39Z" fill="#E6E6E6"/>
<path d="M359.29 328.31V353.88H408.58V328.31H359.29Z" fill="#E6E6E6"/>
<path d="M379.06 332.59H388.81C390.907 332.591 392.981 332.164 394.907 331.336C396.833 330.507 398.57 329.294 400.01 327.77H367.86C369.3 329.294 371.037 330.507 372.963 331.336C374.889 332.164 376.963 332.591 379.06 332.59Z" fill="#F0F0F0"/>
<path d="M325.66 332.59H335.41C337.507 332.591 339.581 332.164 341.507 331.336C343.433 330.507 345.17 329.294 346.61 327.77H314.46C315.9 329.294 317.637 330.507 319.563 331.336C321.489 332.164 323.563 332.591 325.66 332.59Z" fill="#F0F0F0"/>
<path d="M306.38 288.56V314.13H355.67V288.56H306.38Z" fill="#E6E6E6"/>
<path d="M359.29 288.57V314.14H408.58V288.57H359.29Z" fill="#E6E6E6"/>
<path d="M379.06 292.84H388.81C390.906 292.836 392.979 292.404 394.903 291.572C396.827 290.74 398.561 289.525 400 288H367.86C369.3 289.526 371.036 290.742 372.961 291.574C374.887 292.406 376.962 292.837 379.06 292.84Z" fill="#F0F0F0"/>
<path d="M325.66 292.84H335.41C337.506 292.841 339.58 292.415 341.505 291.588C343.431 290.761 345.168 289.55 346.61 288.03H314.46C315.902 289.55 317.639 290.761 319.565 291.588C321.49 292.415 323.564 292.841 325.66 292.84Z" fill="#F0F0F0"/>
<path d="M306.39 248.82V274.39H355.68V248.82H306.39Z" fill="#E6E6E6"/>
<path d="M359.29 248.82V274.39H408.58V248.82H359.29Z" fill="#E6E6E6"/>
<path d="M379.06 253.1H388.81C390.907 253.101 392.981 252.674 394.907 251.846C396.833 251.017 398.57 249.804 400.01 248.28H367.86C369.3 249.804 371.037 251.017 372.963 251.846C374.889 252.674 376.963 253.101 379.06 253.1Z" fill="#F0F0F0"/>
<path d="M325.66 253.1H335.41C337.507 253.101 339.581 252.674 341.507 251.846C343.433 251.017 345.17 249.804 346.61 248.28H314.46C315.9 249.804 317.637 251.017 319.563 251.846C321.489 252.674 323.563 253.101 325.66 253.1Z" fill="#F0F0F0"/>
<path d="M407.38 382.4H412.76V367.1H401.74L407.38 382.4Z" fill="#F0F0F0"/>
<path d="M412.04 144.77L416.37 156.61H412.04L385.47 144.77H412.04Z" fill="#F5F5F5"/>
<path d="M416.37 144.77V156.61L389.81 144.77H416.37Z" fill="#E6E6E6"/>
<path d="M307.87 144.77L312.2 156.61H307.87L281.31 144.77H307.87Z" fill="#F5F5F5"/>
<path d="M312.2 144.77V156.61L285.64 144.77H312.2Z" fill="#E6E6E6"/>
<path d="M435.87 136.31H406.98V145.32H435.87V136.31Z" fill="#E6E6E6"/>
<path d="M263.35 145.33L406.98 145.33V136.32L263.35 136.32V145.33Z" fill="#F5F5F5"/>
<path d="M377.81 105C377.81 105 378.1 136.32 388.91 136.32C399.72 136.32 400 105 400 105H377.81Z" fill="#F0F0F0"/>
<path d="M310.78 126.1C310.78 126.1 311.54 136.31 340.62 136.31C369.7 136.31 370.46 126.1 370.46 126.1H310.78Z" fill="#F0F0F0"/>
<path d="M224.36 382.4H226.29L231.82 355.15L232.82 350.37L238.82 320.67H262L274.53 382.4H276.47L263.7 319.54C263.658 319.325 263.542 319.131 263.372 318.992C263.202 318.853 262.989 318.778 262.77 318.78H238.05C237.832 318.779 237.62 318.854 237.452 318.993C237.284 319.132 237.17 319.326 237.13 319.54L231.83 345.62L230.83 350.39L224.36 382.4Z" fill="#F0F0F0"/>
<path d="M187.23 382.4H189.16L201.7 320.67H224.82L230.82 350.39L231.82 355.15L237.36 382.4H239.29L232.79 350.4L231.79 345.65L226.49 319.57C226.438 319.36 226.32 319.172 226.152 319.035C225.984 318.898 225.776 318.819 225.56 318.81H200.93C200.711 318.808 200.498 318.883 200.328 319.022C200.158 319.161 200.042 319.355 200 319.57L187.23 382.4Z" fill="#F0F0F0"/>
<path d="M265.46 311.58H198.19C196.647 311.583 195.168 312.197 194.078 313.288C192.987 314.378 192.373 315.857 192.37 317.4V317.6C192.37 318.165 192.594 318.707 192.994 319.106C193.393 319.506 193.935 319.73 194.5 319.73H269.15C269.715 319.73 270.257 319.506 270.656 319.106C271.056 318.707 271.28 318.165 271.28 317.6V317.4C271.277 315.857 270.663 314.378 269.572 313.288C268.482 312.197 267.003 311.583 265.46 311.58Z" fill="#F0F0F0"/>
<path d="M156.85 382.4H158.78L164.31 355.15L165.31 350.37L171.31 320.67H194.43L207 382.4H208.94L196.17 319.54C196.128 319.325 196.012 319.131 195.842 318.992C195.672 318.853 195.459 318.778 195.24 318.78H170.54C170.322 318.779 170.11 318.854 169.942 318.993C169.774 319.132 169.66 319.326 169.62 319.54L164.32 345.62L163.32 350.39L156.85 382.4Z" fill="#F0F0F0"/>
<path d="M119.72 382.4H121.66L134.19 320.67H157.32L163.32 350.39L164.32 355.15L169.86 382.4H171.79L165.29 350.4L164.29 345.65L159 319.54C158.948 319.33 158.83 319.142 158.662 319.005C158.494 318.868 158.286 318.789 158.07 318.78H133.42C133.201 318.778 132.988 318.853 132.818 318.992C132.648 319.131 132.532 319.325 132.49 319.54L119.72 382.4Z" fill="#F0F0F0"/>
<path d="M198 311.58H130.68C129.137 311.583 127.658 312.197 126.568 313.288C125.477 314.378 124.863 315.857 124.86 317.4V317.6C124.86 318.165 125.084 318.707 125.484 319.106C125.883 319.506 126.425 319.73 126.99 319.73H201.65C201.929 319.73 202.206 319.675 202.464 319.568C202.721 319.461 202.956 319.303 203.153 319.106C203.35 318.908 203.506 318.673 203.612 318.414C203.717 318.156 203.771 317.879 203.77 317.6V317.4C203.767 315.866 203.16 314.395 202.08 313.305C201 312.216 199.534 311.596 198 311.58Z" fill="#F0F0F0"/>
<path d="M84.33 232.6H180.98L180.98 77.77H84.33L84.33 232.6Z" fill="#E6E6E6"/>
<path d="M78.02 232.6H178.03L178.03 77.77H78.02L78.02 232.6Z" fill="#F0F0F0"/>
<path d="M84.33 244.33H180.98V232.59H84.33V244.33Z" fill="#E6E6E6"/>
<path d="M67.5 244.33H167.51V232.59H67.5V244.33Z" fill="#F0F0F0"/>
<path d="M169.18 223.76V86.61H86.85L86.85 223.76H169.18Z" fill="#FAFAFA"/>
<path d="M169.89 223.75L140.93 86.61H116.43L145.39 223.75H169.89Z" fill="white"/>
<path d="M163.22 207.37C163.387 207.37 163.547 207.304 163.665 207.185C163.784 207.067 163.85 206.907 163.85 206.74V92.36C163.85 92.1929 163.784 92.0327 163.665 91.9145C163.547 91.7964 163.387 91.73 163.22 91.73C163.053 91.73 162.893 91.7964 162.775 91.9145C162.656 92.0327 162.59 92.1929 162.59 92.36V206.74C162.59 206.907 162.656 207.067 162.775 207.185C162.893 207.304 163.053 207.37 163.22 207.37Z" fill="#F0F0F0"/>
<path d="M140.13 223.75L111.17 86.61H101.62L130.57 223.75H140.13Z" fill="white"/>
<path d="M87.98 223.76L87.98 86.61H86.86L86.86 223.76H87.98Z" fill="#E6E6E6"/>
<path opacity="0.6" d="M75.92 93.4H172.57L173.39 90.04H76.74L75.92 93.4Z" fill="#F0F0F0"/>
<path opacity="0.6" d="M75.92 101.21H172.57L173.39 97.86H76.74L75.92 101.21Z" fill="#F0F0F0"/>
<path opacity="0.6" d="M75.92 109.03H172.57L173.39 105.67H76.74L75.92 109.03Z" fill="#F0F0F0"/>
<path opacity="0.6" d="M75.92 116.84H172.57L173.39 113.49H76.74L75.92 116.84Z" fill="#F0F0F0"/>
<path opacity="0.6" d="M75.92 124.66H172.57L173.39 121.31H76.74L75.92 124.66Z" fill="#F0F0F0"/>
<path opacity="0.6" d="M75.92 132.48H172.57L173.39 129.12H76.74L75.92 132.48Z" fill="#F0F0F0"/>
<path d="M250 427.56C357.082 427.56 443.89 422.492 443.89 416.24C443.89 409.988 357.082 404.92 250 404.92C142.918 404.92 56.11 409.988 56.11 416.24C56.11 422.492 142.918 427.56 250 427.56Z" fill="#F5F5F5"/>
<path d="M243.12 262.73H182.03C181.168 262.73 180.47 263.428 180.47 264.29V289.77C180.47 290.632 181.168 291.33 182.03 291.33H243.12C243.982 291.33 244.68 290.632 244.68 289.77V264.29C244.68 263.428 243.982 262.73 243.12 262.73Z" fill="#31AAAA"/>
<path opacity="0.6" d="M243.12 262.73H182.03C181.168 262.73 180.47 263.428 180.47 264.29V289.77C180.47 290.632 181.168 291.33 182.03 291.33H243.12C243.982 291.33 244.68 290.632 244.68 289.77V264.29C244.68 263.428 243.982 262.73 243.12 262.73Z" fill="white"/>
<path opacity="0.1" d="M243.11 262.73H182C181.586 262.73 181.189 262.894 180.897 263.187C180.604 263.479 180.44 263.876 180.44 264.29V272.46L212.24 278.72C212.435 278.76 212.635 278.76 212.83 278.72L244.64 272.46V264.29C244.64 263.881 244.48 263.489 244.194 263.197C243.908 262.906 243.519 262.738 243.11 262.73Z" fill="black"/>
<path d="M244.45 252.27H225.79V249.14C225.787 247.847 225.272 246.607 224.358 245.692C223.443 244.778 222.203 244.263 220.91 244.26H204.24C202.947 244.263 201.707 244.778 200.792 245.692C199.878 246.607 199.363 247.847 199.36 249.14V252.27H180.71C180.302 252.27 179.91 252.432 179.621 252.721C179.332 253.01 179.17 253.402 179.17 253.81V269.22C179.172 269.576 179.296 269.92 179.522 270.195C179.748 270.47 180.061 270.659 180.41 270.73L212.28 277C212.476 277.03 212.674 277.03 212.87 277L244.74 270.73C245.09 270.659 245.404 270.471 245.632 270.196C245.859 269.921 245.986 269.577 245.99 269.22V253.81C245.99 253.402 245.828 253.01 245.539 252.721C245.25 252.432 244.858 252.27 244.45 252.27ZM203.07 249.14C203.073 248.83 203.196 248.532 203.415 248.312C203.634 248.092 203.93 247.965 204.24 247.96H220.91C221.22 247.965 221.516 248.092 221.735 248.312C221.954 248.532 222.077 248.83 222.08 249.14V252.27H203.08L203.07 249.14Z" fill="#31AAAA"/>
<path opacity="0.6" d="M244.45 252.27H225.79V249.14C225.787 247.847 225.272 246.607 224.358 245.692C223.443 244.778 222.203 244.263 220.91 244.26H204.24C202.947 244.263 201.707 244.778 200.792 245.692C199.878 246.607 199.363 247.847 199.36 249.14V252.27H180.71C180.302 252.27 179.91 252.432 179.621 252.721C179.332 253.01 179.17 253.402 179.17 253.81V269.22C179.172 269.576 179.296 269.92 179.522 270.195C179.748 270.47 180.061 270.659 180.41 270.73L212.28 277C212.476 277.03 212.674 277.03 212.87 277L244.74 270.73C245.09 270.659 245.404 270.471 245.632 270.196C245.859 269.921 245.986 269.577 245.99 269.22V253.81C245.99 253.402 245.828 253.01 245.539 252.721C245.25 252.432 244.858 252.27 244.45 252.27ZM203.07 249.14C203.073 248.83 203.196 248.532 203.415 248.312C203.634 248.092 203.93 247.965 204.24 247.96H220.91C221.22 247.965 221.516 248.092 221.735 248.312C221.954 248.532 222.077 248.83 222.08 249.14V252.27H203.08L203.07 249.14Z" fill="white"/>
<path d="M215.87 272.79H209.29C208.473 272.79 207.81 273.453 207.81 274.27V278.43C207.81 279.247 208.473 279.91 209.29 279.91H215.87C216.687 279.91 217.35 279.247 217.35 278.43V274.27C217.35 273.453 216.687 272.79 215.87 272.79Z" fill="#31AAAA"/>
<path opacity="0.3" d="M215.87 272.79H209.29C208.473 272.79 207.81 273.453 207.81 274.27V278.43C207.81 279.247 208.473 279.91 209.29 279.91H215.87C216.687 279.91 217.35 279.247 217.35 278.43V274.27C217.35 273.453 216.687 272.79 215.87 272.79Z" fill="white"/>
<path d="M243.12 78.77H182.03C181.168 78.77 180.47 79.4684 180.47 80.33V105.81C180.47 106.672 181.168 107.37 182.03 107.37H243.12C243.982 107.37 244.68 106.672 244.68 105.81V80.33C244.68 79.4684 243.982 78.77 243.12 78.77Z" fill="#31AAAA"/>
<path opacity="0.6" d="M243.12 78.77H182.03C181.168 78.77 180.47 79.4684 180.47 80.33V105.81C180.47 106.672 181.168 107.37 182.03 107.37H243.12C243.982 107.37 244.68 106.672 244.68 105.81V80.33C244.68 79.4684 243.982 78.77 243.12 78.77Z" fill="white"/>
<path opacity="0.1" d="M243.11 78.77H182C181.586 78.77 181.189 78.9344 180.897 79.2269C180.604 79.5195 180.44 79.9163 180.44 80.33V88.5L212.24 94.76C212.435 94.7999 212.635 94.7999 212.83 94.76L244.64 88.5V80.33C244.64 79.9214 244.48 79.5291 244.194 79.2374C243.908 78.9457 243.519 78.7779 243.11 78.77Z" fill="black"/>
<path d="M244.45 68.31H225.79V65.18C225.787 63.8866 225.272 62.6468 224.358 61.7322C223.443 60.8176 222.203 60.3026 220.91 60.3H204.24C202.947 60.3026 201.707 60.8176 200.792 61.7322C199.878 62.6468 199.363 63.8866 199.36 65.18V68.31H180.71C180.302 68.31 179.91 68.4723 179.621 68.7611C179.332 69.0499 179.17 69.4416 179.17 69.85V85.26C179.17 85.6163 179.294 85.9615 179.52 86.2368C179.746 86.5122 180.061 86.7006 180.41 86.77L212.28 93C212.475 93.0399 212.675 93.0399 212.87 93L244.74 86.73C245.086 86.6644 245.399 86.4831 245.628 86.2159C245.857 85.9488 245.988 85.6117 246 85.26V69.85C246 69.6469 245.96 69.4458 245.882 69.2584C245.804 69.0709 245.689 68.9006 245.545 68.7575C245.401 68.6144 245.23 68.5011 245.042 68.4243C244.854 68.3475 244.653 68.3087 244.45 68.31ZM203.07 65.18C203.07 64.8688 203.193 64.5701 203.412 64.3491C203.631 64.1281 203.929 64.0026 204.24 64H220.91C221.219 64.0026 221.516 64.1267 221.734 64.3456C221.953 64.5644 222.077 64.8605 222.08 65.17V68.3H203.08L203.07 65.18Z" fill="#31AAAA"/>
<path opacity="0.6" d="M244.45 68.31H225.79V65.18C225.787 63.8866 225.272 62.6468 224.358 61.7322C223.443 60.8176 222.203 60.3026 220.91 60.3H204.24C202.947 60.3026 201.707 60.8176 200.792 61.7322C199.878 62.6468 199.363 63.8866 199.36 65.18V68.31H180.71C180.302 68.31 179.91 68.4723 179.621 68.7611C179.332 69.0499 179.17 69.4416 179.17 69.85V85.26C179.17 85.6163 179.294 85.9615 179.52 86.2368C179.746 86.5122 180.061 86.7006 180.41 86.77L212.28 93C212.475 93.0399 212.675 93.0399 212.87 93L244.74 86.73C245.086 86.6644 245.399 86.4831 245.628 86.2159C245.857 85.9488 245.988 85.6117 246 85.26V69.85C246 69.6469 245.96 69.4458 245.882 69.2584C245.804 69.0709 245.689 68.9006 245.545 68.7575C245.401 68.6144 245.23 68.5011 245.042 68.4243C244.854 68.3475 244.653 68.3087 244.45 68.31ZM203.07 65.18C203.07 64.8688 203.193 64.5701 203.412 64.3491C203.631 64.1281 203.929 64.0026 204.24 64H220.91C221.219 64.0026 221.516 64.1267 221.734 64.3456C221.953 64.5644 222.077 64.8605 222.08 65.17V68.3H203.08L203.07 65.18Z" fill="white"/>
<path d="M215.87 88.84H209.29C208.473 88.84 207.81 89.5026 207.81 90.32V94.48C207.81 95.2974 208.473 95.96 209.29 95.96H215.87C216.687 95.96 217.35 95.2974 217.35 94.48V90.32C217.35 89.5026 216.687 88.84 215.87 88.84Z" fill="#31AAAA"/>
<path opacity="0.3" d="M215.87 88.84H209.29C208.473 88.84 207.81 89.5026 207.81 90.32V94.48C207.81 95.2974 208.473 95.96 209.29 95.96H215.87C216.687 95.96 217.35 95.2974 217.35 94.48V90.32C217.35 89.5026 216.687 88.84 215.87 88.84Z" fill="white"/>
<path d="M147.96 262.73H86.87C86.0084 262.73 85.31 263.428 85.31 264.29V289.77C85.31 290.632 86.0084 291.33 86.87 291.33H147.96C148.822 291.33 149.52 290.632 149.52 289.77V264.29C149.52 263.428 148.822 262.73 147.96 262.73Z" fill="#31AAAA"/>
<path opacity="0.6" d="M147.96 262.73H86.87C86.0084 262.73 85.31 263.428 85.31 264.29V289.77C85.31 290.632 86.0084 291.33 86.87 291.33H147.96C148.822 291.33 149.52 290.632 149.52 289.77V264.29C149.52 263.428 148.822 262.73 147.96 262.73Z" fill="white"/>
<path opacity="0.1" d="M148 262.73H86.87C86.4563 262.73 86.0595 262.894 85.7669 263.187C85.4744 263.479 85.31 263.876 85.31 264.29V272.46L117.11 278.72C117.308 278.76 117.512 278.76 117.71 278.72L149.52 272.46V264.29C149.52 263.883 149.361 263.492 149.077 263.201C148.793 262.909 148.407 262.74 148 262.73Z" fill="black"/>
<path d="M149.28 252.27H130.62V249.14C130.617 247.847 130.102 246.607 129.188 245.692C128.273 244.778 127.033 244.263 125.74 244.26H109.08C107.787 244.263 106.547 244.778 105.632 245.692C104.718 246.607 104.203 247.847 104.2 249.14V252.27H85.54C85.1316 252.27 84.7399 252.432 84.4511 252.721C84.1623 253.01 84 253.402 84 253.81V269.22C84.002 269.576 84.1263 269.92 84.3521 270.195C84.5779 270.47 84.8914 270.659 85.24 270.73L117.11 277C117.309 277.03 117.511 277.03 117.71 277L149.58 270.73C149.929 270.659 150.242 270.47 150.468 270.195C150.694 269.92 150.818 269.576 150.82 269.22V253.81C150.82 253.402 150.658 253.01 150.369 252.721C150.08 252.432 149.688 252.27 149.28 252.27ZM107.9 249.14C107.905 248.829 108.031 248.531 108.251 248.311C108.471 248.091 108.769 247.965 109.08 247.96H125.74C126.051 247.965 126.349 248.091 126.569 248.311C126.789 248.531 126.915 248.829 126.92 249.14V252.27H107.92L107.9 249.14Z" fill="#31AAAA"/>
<path opacity="0.6" d="M149.28 252.27H130.62V249.14C130.617 247.847 130.102 246.607 129.188 245.692C128.273 244.778 127.033 244.263 125.74 244.26H109.08C107.787 244.263 106.547 244.778 105.632 245.692C104.718 246.607 104.203 247.847 104.2 249.14V252.27H85.54C85.1316 252.27 84.7399 252.432 84.4511 252.721C84.1623 253.01 84 253.402 84 253.81V269.22C84.002 269.576 84.1263 269.92 84.3521 270.195C84.5779 270.47 84.8914 270.659 85.24 270.73L117.11 277C117.309 277.03 117.511 277.03 117.71 277L149.58 270.73C149.929 270.659 150.242 270.47 150.468 270.195C150.694 269.92 150.818 269.576 150.82 269.22V253.81C150.82 253.402 150.658 253.01 150.369 252.721C150.08 252.432 149.688 252.27 149.28 252.27ZM107.9 249.14C107.905 248.829 108.031 248.531 108.251 248.311C108.471 248.091 108.769 247.965 109.08 247.96H125.74C126.051 247.965 126.349 248.091 126.569 248.311C126.789 248.531 126.915 248.829 126.92 249.14V252.27H107.92L107.9 249.14Z" fill="white"/>
<path d="M120.7 272.79H114.12C113.303 272.79 112.64 273.453 112.64 274.27V278.43C112.64 279.247 113.303 279.91 114.12 279.91H120.7C121.517 279.91 122.18 279.247 122.18 278.43V274.27C122.18 273.453 121.517 272.79 120.7 272.79Z" fill="#31AAAA"/>
<path opacity="0.3" d="M120.7 272.79H114.12C113.303 272.79 112.64 273.453 112.64 274.27V278.43C112.64 279.247 113.303 279.91 114.12 279.91H120.7C121.517 279.91 122.18 279.247 122.18 278.43V274.27C122.18 273.453 121.517 272.79 120.7 272.79Z" fill="white"/>
<path d="M147.96 78.77H86.87C86.0084 78.77 85.31 79.4684 85.31 80.33V105.81C85.31 106.672 86.0084 107.37 86.87 107.37H147.96C148.822 107.37 149.52 106.672 149.52 105.81V80.33C149.52 79.4684 148.822 78.77 147.96 78.77Z" fill="#31AAAA"/>
<path opacity="0.6" d="M147.96 78.77H86.87C86.0084 78.77 85.31 79.4684 85.31 80.33V105.81C85.31 106.672 86.0084 107.37 86.87 107.37H147.96C148.822 107.37 149.52 106.672 149.52 105.81V80.33C149.52 79.4684 148.822 78.77 147.96 78.77Z" fill="white"/>
<path opacity="0.1" d="M148 78.77H86.87C86.4563 78.77 86.0595 78.9344 85.7669 79.2269C85.4744 79.5195 85.31 79.9163 85.31 80.33V88.5L117.11 94.76C117.308 94.8001 117.512 94.8001 117.71 94.76L149.52 88.5V80.33C149.52 79.9231 149.361 79.5323 149.077 79.2408C148.793 78.9494 148.407 78.7804 148 78.77Z" fill="black"/>
<path d="M149.28 68.31H130.62V65.18C130.617 63.8866 130.102 62.6468 129.188 61.7322C128.273 60.8176 127.033 60.3026 125.74 60.3H109.08C107.787 60.3026 106.547 60.8176 105.632 61.7322C104.718 62.6468 104.203 63.8866 104.2 65.18V68.31H85.54C85.1316 68.31 84.7399 68.4723 84.4511 68.7611C84.1623 69.0499 84 69.4416 84 69.85V85.26C84.0001 85.6163 84.1238 85.9615 84.3499 86.2368C84.576 86.5122 84.8905 86.7006 85.24 86.77L117.11 93C117.308 93.0401 117.512 93.0401 117.71 93L149.58 86.73C149.929 86.6606 150.244 86.4722 150.47 86.1968C150.696 85.9215 150.82 85.5763 150.82 85.22V69.85C150.82 69.4416 150.658 69.0499 150.369 68.7611C150.08 68.4723 149.688 68.31 149.28 68.31ZM107.9 65.18C107.903 64.8679 108.028 64.5692 108.249 64.3485C108.469 64.1278 108.768 64.0026 109.08 64H125.74C126.05 64.0026 126.348 64.1264 126.568 64.3449C126.788 64.5635 126.915 64.8596 126.92 65.17V68.3H107.92L107.9 65.18Z" fill="#31AAAA"/>
<path opacity="0.6" d="M149.28 68.31H130.62V65.18C130.617 63.8866 130.102 62.6468 129.188 61.7322C128.273 60.8176 127.033 60.3026 125.74 60.3H109.08C107.787 60.3026 106.547 60.8176 105.632 61.7322C104.718 62.6468 104.203 63.8866 104.2 65.18V68.31H85.54C85.1316 68.31 84.7399 68.4723 84.4511 68.7611C84.1623 69.0499 84 69.4416 84 69.85V85.26C84.0001 85.6163 84.1238 85.9615 84.3499 86.2368C84.576 86.5122 84.8905 86.7006 85.24 86.77L117.11 93C117.308 93.0401 117.512 93.0401 117.71 93L149.58 86.73C149.929 86.6606 150.244 86.4722 150.47 86.1968C150.696 85.9215 150.82 85.5763 150.82 85.22V69.85C150.82 69.4416 150.658 69.0499 150.369 68.7611C150.08 68.4723 149.688 68.31 149.28 68.31ZM107.9 65.18C107.903 64.8679 108.028 64.5692 108.249 64.3485C108.469 64.1278 108.768 64.0026 109.08 64H125.74C126.05 64.0026 126.348 64.1264 126.568 64.3449C126.788 64.5635 126.915 64.8596 126.92 65.17V68.3H107.92L107.9 65.18Z" fill="white"/>
<path d="M120.7 88.84H114.12C113.303 88.84 112.64 89.5026 112.64 90.32V94.48C112.64 95.2974 113.303 95.96 114.12 95.96H120.7C121.517 95.96 122.18 95.2974 122.18 94.48V90.32C122.18 89.5026 121.517 88.84 120.7 88.84Z" fill="#31AAAA"/>
<path opacity="0.3" d="M120.7 88.84H114.12C113.303 88.84 112.64 89.5026 112.64 90.32V94.48C112.64 95.2974 113.303 95.96 114.12 95.96H120.7C121.517 95.96 122.18 95.2974 122.18 94.48V90.32C122.18 89.5026 121.517 88.84 120.7 88.84Z" fill="white"/>
<path d="M140 199.35H86.87C86.4536 199.35 86.0543 199.185 85.7598 198.89C85.4654 198.596 85.3 198.196 85.3 197.78V172.31C85.3016 172.1 85.3458 171.892 85.43 171.7C85.4707 171.61 85.5174 171.523 85.57 171.44C85.6257 171.354 85.693 171.277 85.77 171.21C86.0613 170.917 86.4569 170.752 86.87 170.75H137.16C136.742 174.24 136.605 177.758 136.75 181.27C136.75 181.84 136.75 182.41 136.84 182.97C136.91 184.02 136.99 185.08 137.11 186.13C137.625 190.623 138.593 195.052 140 199.35Z" fill="#31AAAA"/>
<path opacity="0.6" d="M140 199.35H86.87C86.4536 199.35 86.0543 199.185 85.7598 198.89C85.4654 198.596 85.3 198.196 85.3 197.78V172.31C85.3016 172.1 85.3458 171.892 85.43 171.7C85.4707 171.61 85.5174 171.523 85.57 171.44C85.6257 171.354 85.693 171.277 85.77 171.21C86.0613 170.917 86.4569 170.752 86.87 170.75H137.16C136.742 174.24 136.605 177.758 136.75 181.27C136.75 181.84 136.75 182.41 136.84 182.97C136.91 184.02 136.99 185.08 137.11 186.13C137.625 190.623 138.593 195.052 140 199.35Z" fill="white"/>
<path opacity="0.1" d="M137.16 170.75C136.742 174.24 136.605 177.758 136.75 181.27C136.75 181.84 136.75 182.41 136.84 182.97L122.18 185.85L117.7 186.73C117.507 186.78 117.303 186.78 117.11 186.73L112.64 185.86L85.31 180.48V172.3C85.3132 172.094 85.3538 171.891 85.43 171.7C85.4707 171.61 85.5174 171.523 85.57 171.44C85.6257 171.354 85.693 171.277 85.77 171.21C86.0613 170.917 86.4569 170.752 86.87 170.75H137.16Z" fill="black"/>
<path d="M139.25 160.29H130.63V157.16C130.625 155.866 130.108 154.626 129.191 153.712C128.275 152.797 127.034 152.283 125.74 152.28H109.08C107.786 152.28 106.544 152.794 105.629 153.709C104.714 154.624 104.2 155.866 104.2 157.16V160.29H85.54C85.3378 160.29 85.1375 160.33 84.9507 160.407C84.7638 160.485 84.5941 160.598 84.4511 160.741C84.3081 160.884 84.1946 161.054 84.1172 161.241C84.0398 161.428 84 161.628 84 161.83V177.23C84.0002 177.589 84.1249 177.937 84.3528 178.214C84.5808 178.491 84.8979 178.681 85.25 178.75H85.31L112.64 184.14L117.11 185.01C117.305 185.05 117.505 185.05 117.7 185.01L122.18 184.13L136.75 181.26C136.605 177.748 136.742 174.23 137.16 170.74C137.575 167.206 138.274 163.712 139.25 160.29ZM107.9 157.16C107.905 156.85 108.032 156.554 108.252 156.335C108.472 156.116 108.77 155.993 109.08 155.99H125.74C126.049 155.993 126.346 156.117 126.564 156.336C126.783 156.554 126.907 156.851 126.91 157.16V160.29H107.91L107.9 157.16Z" fill="#31AAAA"/>
<path opacity="0.6" d="M139.25 160.29H130.63V157.16C130.625 155.866 130.108 154.626 129.191 153.712C128.275 152.797 127.034 152.283 125.74 152.28H109.08C107.786 152.28 106.544 152.794 105.629 153.709C104.714 154.624 104.2 155.866 104.2 157.16V160.29H85.54C85.3378 160.29 85.1375 160.33 84.9507 160.407C84.7638 160.485 84.5941 160.598 84.4511 160.741C84.3081 160.884 84.1946 161.054 84.1172 161.241C84.0398 161.428 84 161.628 84 161.83V177.23C84.0002 177.589 84.1249 177.937 84.3528 178.214C84.5808 178.491 84.8979 178.681 85.25 178.75H85.31L112.64 184.14L117.11 185.01C117.305 185.05 117.505 185.05 117.7 185.01L122.18 184.13L136.75 181.26C136.605 177.748 136.742 174.23 137.16 170.74C137.575 167.206 138.274 163.712 139.25 160.29ZM107.9 157.16C107.905 156.85 108.032 156.554 108.252 156.335C108.472 156.116 108.77 155.993 109.08 155.99H125.74C126.049 155.993 126.346 156.117 126.564 156.336C126.783 156.554 126.907 156.851 126.91 157.16V160.29H107.91L107.9 157.16Z" fill="white"/>
<path d="M120.7 180.81H114.12C113.303 180.81 112.64 181.473 112.64 182.29V186.45C112.64 187.267 113.303 187.93 114.12 187.93H120.7C121.517 187.93 122.18 187.267 122.18 186.45V182.29C122.18 181.473 121.517 180.81 120.7 180.81Z" fill="#31AAAA"/>
<path opacity="0.3" d="M120.7 180.81H114.12C113.303 180.81 112.64 181.473 112.64 182.29V186.45C112.64 187.267 113.303 187.93 114.12 187.93H120.7C121.517 187.93 122.18 187.267 122.18 186.45V182.29C122.18 181.473 121.517 180.81 120.7 180.81Z" fill="white"/>
<path d="M277.19 291.32H338.28C339.142 291.32 339.84 290.622 339.84 289.76V264.28C339.84 263.418 339.142 262.72 338.28 262.72H277.19C276.328 262.72 275.63 263.418 275.63 264.28V289.76C275.63 290.622 276.328 291.32 277.19 291.32Z" fill="#31AAAA"/>
<path opacity="0.6" d="M277.19 291.32H338.28C339.142 291.32 339.84 290.622 339.84 289.76V264.28C339.84 263.418 339.142 262.72 338.28 262.72H277.19C276.328 262.72 275.63 263.418 275.63 264.28V289.76C275.63 290.622 276.328 291.32 277.19 291.32Z" fill="white"/>
<path opacity="0.1" d="M277.2 262.73H338.28C338.694 262.73 339.091 262.894 339.383 263.187C339.676 263.479 339.84 263.876 339.84 264.29V272.46L308 278.72C307.805 278.76 307.605 278.76 307.41 278.72L275.6 272.46V264.29C275.6 264.082 275.642 263.876 275.722 263.684C275.803 263.492 275.922 263.318 276.071 263.173C276.22 263.027 276.397 262.913 276.591 262.837C276.785 262.761 276.992 262.725 277.2 262.73Z" fill="black"/>
<path d="M275.87 252.27H294.53V249.14C294.533 247.847 295.048 246.607 295.962 245.692C296.877 244.778 298.117 244.263 299.41 244.26H316.08C317.373 244.263 318.613 244.778 319.528 245.692C320.442 246.607 320.957 247.847 320.96 249.14V252.27H339.61C339.812 252.27 340.012 252.31 340.199 252.387C340.386 252.465 340.556 252.578 340.699 252.721C340.842 252.864 340.955 253.034 341.033 253.221C341.11 253.408 341.15 253.608 341.15 253.81V269.22C341.148 269.576 341.024 269.92 340.798 270.195C340.572 270.47 340.259 270.659 339.91 270.73L308 277C307.801 277.03 307.599 277.03 307.4 277L275.53 270.73C275.181 270.659 274.868 270.47 274.642 270.195C274.416 269.92 274.292 269.576 274.29 269.22V253.81C274.29 253.604 274.331 253.401 274.411 253.211C274.491 253.022 274.608 252.85 274.755 252.707C274.902 252.563 275.077 252.451 275.268 252.376C275.46 252.301 275.664 252.265 275.87 252.27ZM317.25 249.14C317.247 248.83 317.124 248.532 316.905 248.312C316.686 248.092 316.39 247.965 316.08 247.96H299.41C299.099 247.965 298.801 248.091 298.581 248.311C298.361 248.531 298.235 248.829 298.23 249.14V252.27H317.23L317.25 249.14Z" fill="#31AAAA"/>
<path opacity="0.6" d="M275.87 252.27H294.53V249.14C294.533 247.847 295.048 246.607 295.962 245.692C296.877 244.778 298.117 244.263 299.41 244.26H316.08C317.373 244.263 318.613 244.778 319.528 245.692C320.442 246.607 320.957 247.847 320.96 249.14V252.27H339.61C339.812 252.27 340.012 252.31 340.199 252.387C340.386 252.465 340.556 252.578 340.699 252.721C340.842 252.864 340.955 253.034 341.033 253.221C341.11 253.408 341.15 253.608 341.15 253.81V269.22C341.148 269.576 341.024 269.92 340.798 270.195C340.572 270.47 340.259 270.659 339.91 270.73L308 277C307.801 277.03 307.599 277.03 307.4 277L275.53 270.73C275.181 270.659 274.868 270.47 274.642 270.195C274.416 269.92 274.292 269.576 274.29 269.22V253.81C274.29 253.604 274.331 253.401 274.411 253.211C274.491 253.022 274.608 252.85 274.755 252.707C274.902 252.563 275.077 252.451 275.268 252.376C275.46 252.301 275.664 252.265 275.87 252.27ZM317.25 249.14C317.247 248.83 317.124 248.532 316.905 248.312C316.686 248.092 316.39 247.965 316.08 247.96H299.41C299.099 247.965 298.801 248.091 298.581 248.311C298.361 248.531 298.235 248.829 298.23 249.14V252.27H317.23L317.25 249.14Z" fill="white"/>
<path d="M304.45 279.91H311.03C311.847 279.91 312.51 279.247 312.51 278.43V274.27C312.51 273.453 311.847 272.79 311.03 272.79H304.45C303.633 272.79 302.97 273.453 302.97 274.27V278.43C302.97 279.247 303.633 279.91 304.45 279.91Z" fill="#31AAAA"/>
<path opacity="0.3" d="M304.45 279.91H311.03C311.847 279.91 312.51 279.247 312.51 278.43V274.27C312.51 273.453 311.847 272.79 311.03 272.79H304.45C303.633 272.79 302.97 273.453 302.97 274.27V278.43C302.97 279.247 303.633 279.91 304.45 279.91Z" fill="white"/>
<path d="M277.19 107.36L338.28 107.36C339.142 107.36 339.84 106.662 339.84 105.8V80.32C339.84 79.4584 339.142 78.76 338.28 78.76H277.19C276.328 78.76 275.63 79.4584 275.63 80.32V105.8C275.63 106.662 276.328 107.36 277.19 107.36Z" fill="#31AAAA"/>
<path opacity="0.6" d="M277.19 107.36L338.28 107.36C339.142 107.36 339.84 106.662 339.84 105.8V80.32C339.84 79.4584 339.142 78.76 338.28 78.76H277.19C276.328 78.76 275.63 79.4584 275.63 80.32V105.8C275.63 106.662 276.328 107.36 277.19 107.36Z" fill="white"/>
<path opacity="0.1" d="M277.2 78.77H338.28C338.694 78.77 339.091 78.9344 339.383 79.2269C339.676 79.5195 339.84 79.9163 339.84 80.33V88.5L308 94.76C307.805 94.7999 307.605 94.7999 307.41 94.76L275.64 88.5V80.33C275.64 79.9163 275.804 79.5195 276.097 79.2269C276.389 78.9344 276.786 78.77 277.2 78.77Z" fill="black"/>
<path d="M275.87 68.31H294.53V65.18C294.533 63.8866 295.048 62.6468 295.962 61.7322C296.877 60.8176 298.117 60.3026 299.41 60.3H316.08C316.724 60.2961 317.362 60.4193 317.958 60.6626C318.554 60.906 319.096 61.2647 319.554 61.7181C320.011 62.1715 320.374 62.7107 320.622 63.3048C320.87 63.8989 320.999 64.5362 321 65.18V68.31H339.65C340.058 68.31 340.45 68.4723 340.739 68.7611C341.028 69.0499 341.19 69.4416 341.19 69.85V85.26C341.19 85.6163 341.066 85.9615 340.84 86.2368C340.614 86.5122 340.299 86.7006 339.95 86.77L308 93C307.802 93.0401 307.598 93.0401 307.4 93L275.53 86.73C275.181 86.6606 274.866 86.4722 274.64 86.1968C274.414 85.9215 274.29 85.5763 274.29 85.22V69.85C274.29 69.6444 274.331 69.4408 274.411 69.2513C274.491 69.0618 274.608 68.8902 274.755 68.7467C274.902 68.6031 275.077 68.4905 275.268 68.4155C275.46 68.3406 275.664 68.3047 275.87 68.31ZM317.25 65.18C317.25 64.8688 317.127 64.5701 316.908 64.3491C316.689 64.1281 316.391 64.0026 316.08 64H299.41C299.1 64.0026 298.802 64.1264 298.582 64.3449C298.362 64.5635 298.235 64.8596 298.23 65.17V68.3H317.23L317.25 65.18Z" fill="#31AAAA"/>
<path opacity="0.6" d="M275.87 68.31H294.53V65.18C294.533 63.8866 295.048 62.6468 295.962 61.7322C296.877 60.8176 298.117 60.3026 299.41 60.3H316.08C316.724 60.2961 317.362 60.4193 317.958 60.6626C318.554 60.906 319.096 61.2647 319.554 61.7181C320.011 62.1715 320.374 62.7107 320.622 63.3048C320.87 63.8989 320.999 64.5362 321 65.18V68.31H339.65C340.058 68.31 340.45 68.4723 340.739 68.7611C341.028 69.0499 341.19 69.4416 341.19 69.85V85.26C341.19 85.6163 341.066 85.9615 340.84 86.2368C340.614 86.5122 340.299 86.7006 339.95 86.77L308 93C307.802 93.0401 307.598 93.0401 307.4 93L275.53 86.73C275.181 86.6606 274.866 86.4722 274.64 86.1968C274.414 85.9215 274.29 85.5763 274.29 85.22V69.85C274.29 69.6444 274.331 69.4408 274.411 69.2513C274.491 69.0618 274.608 68.8902 274.755 68.7467C274.902 68.6031 275.077 68.4905 275.268 68.4155C275.46 68.3406 275.664 68.3047 275.87 68.31ZM317.25 65.18C317.25 64.8688 317.127 64.5701 316.908 64.3491C316.689 64.1281 316.391 64.0026 316.08 64H299.41C299.1 64.0026 298.802 64.1264 298.582 64.3449C298.362 64.5635 298.235 64.8596 298.23 65.17V68.3H317.23L317.25 65.18Z" fill="white"/>
<path d="M304.45 95.95H311.03C311.847 95.95 312.51 95.2874 312.51 94.47V90.31C312.51 89.4926 311.847 88.83 311.03 88.83H304.45C303.633 88.83 302.97 89.4926 302.97 90.31V94.47C302.97 95.2874 303.633 95.95 304.45 95.95Z" fill="#31AAAA"/>
<path opacity="0.3" d="M304.45 95.95H311.03C311.847 95.95 312.51 95.2874 312.51 94.47V90.31C312.51 89.4926 311.847 88.83 311.03 88.83H304.45C303.633 88.83 302.97 89.4926 302.97 90.31V94.47C302.97 95.2874 303.633 95.95 304.45 95.95Z" fill="white"/>
<path d="M285.19 199.35H338.29C338.705 199.347 339.101 199.181 339.394 198.887C339.686 198.592 339.85 198.195 339.85 197.78V172.31C339.848 172.1 339.804 171.892 339.72 171.7C339.683 171.608 339.636 171.521 339.58 171.44C339.524 171.354 339.457 171.277 339.38 171.21C339.236 171.064 339.065 170.948 338.876 170.869C338.687 170.79 338.485 170.75 338.28 170.75H288C288.418 174.24 288.555 177.758 288.41 181.27C288.41 181.84 288.41 182.41 288.32 182.97C288.26 184.02 288.17 185.08 288.05 186.13C287.545 190.622 286.587 195.051 285.19 199.35Z" fill="#31AAAA"/>
<path opacity="0.6" d="M285.19 199.35H338.29C338.705 199.347 339.101 199.181 339.394 198.887C339.686 198.592 339.85 198.195 339.85 197.78V172.31C339.848 172.1 339.804 171.892 339.72 171.7C339.683 171.608 339.636 171.521 339.58 171.44C339.524 171.354 339.457 171.277 339.38 171.21C339.236 171.064 339.065 170.948 338.876 170.869C338.687 170.79 338.485 170.75 338.28 170.75H288C288.418 174.24 288.555 177.758 288.41 181.27C288.41 181.84 288.41 182.41 288.32 182.97C288.26 184.02 288.17 185.08 288.05 186.13C287.545 190.622 286.587 195.051 285.19 199.35Z" fill="white"/>
<path opacity="0.1" d="M288 170.75C288.418 174.24 288.555 177.758 288.41 181.27C288.41 181.84 288.41 182.41 288.32 182.97L303 185.85L307.48 186.73C307.674 186.78 307.877 186.78 308.07 186.73L312.54 185.86L339.87 180.48V172.3C339.867 172.094 339.826 171.891 339.75 171.7C339.713 171.608 339.666 171.521 339.61 171.44C339.554 171.354 339.487 171.277 339.41 171.21C339.266 171.064 339.095 170.948 338.906 170.869C338.717 170.79 338.515 170.75 338.31 170.75H288Z" fill="black"/>
<path d="M285.9 160.29H294.53V157.16C294.533 155.867 295.048 154.627 295.962 153.712C296.877 152.798 298.117 152.283 299.41 152.28H316.07C317.365 152.28 318.607 152.794 319.524 153.709C320.441 154.624 320.957 155.865 320.96 157.16V160.29H339.61C340.018 160.29 340.41 160.452 340.699 160.741C340.988 161.03 341.15 161.422 341.15 161.83V177.23C341.15 177.587 341.027 177.934 340.801 178.211C340.575 178.488 340.26 178.679 339.91 178.75H339.84L312.51 184.14L308 185C307.805 185.04 307.605 185.04 307.41 185L302.93 184.12L288.36 181.25C288.644 174.162 287.8 167.074 285.86 160.25L285.9 160.29ZM317.25 157.16C317.245 156.85 317.118 156.554 316.898 156.335C316.678 156.116 316.38 155.993 316.07 155.99H299.41C299.101 155.993 298.804 156.117 298.586 156.336C298.367 156.554 298.243 156.851 298.24 157.16V160.29H317.24L317.25 157.16Z" fill="#31AAAA"/>
<path opacity="0.6" d="M285.9 160.29H294.53V157.16C294.533 155.867 295.048 154.627 295.962 153.712C296.877 152.798 298.117 152.283 299.41 152.28H316.07C317.365 152.28 318.607 152.794 319.524 153.709C320.441 154.624 320.957 155.865 320.96 157.16V160.29H339.61C340.018 160.29 340.41 160.452 340.699 160.741C340.988 161.03 341.15 161.422 341.15 161.83V177.23C341.15 177.587 341.027 177.934 340.801 178.211C340.575 178.488 340.26 178.679 339.91 178.75H339.84L312.51 184.14L308 185C307.805 185.04 307.605 185.04 307.41 185L302.93 184.12L288.36 181.25C288.644 174.162 287.8 167.074 285.86 160.25L285.9 160.29ZM317.25 157.16C317.245 156.85 317.118 156.554 316.898 156.335C316.678 156.116 316.38 155.993 316.07 155.99H299.41C299.101 155.993 298.804 156.117 298.586 156.336C298.367 156.554 298.243 156.851 298.24 157.16V160.29H317.24L317.25 157.16Z" fill="white"/>
<path d="M304.45 187.94H311.03C311.847 187.94 312.51 187.277 312.51 186.46V182.3C312.51 181.483 311.847 180.82 311.03 180.82H304.45C303.633 180.82 302.97 181.483 302.97 182.3V186.46C302.97 187.277 303.633 187.94 304.45 187.94Z" fill="#31AAAA"/>
<path opacity="0.3" d="M304.45 187.94H311.03C311.847 187.94 312.51 187.277 312.51 186.46V182.3C312.51 181.483 311.847 180.82 311.03 180.82H304.45C303.633 180.82 302.97 181.483 302.97 182.3V186.46C302.97 187.277 303.633 187.94 304.45 187.94Z" fill="white"/>
<path d="M259.7 164.54H171.92C170.683 164.54 169.68 165.543 169.68 166.78V203.39C169.68 204.627 170.683 205.63 171.92 205.63H259.7C260.937 205.63 261.94 204.627 261.94 203.39V166.78C261.94 165.543 260.937 164.54 259.7 164.54Z" fill="#31AAAA"/>
<path d="M227.78 158H203.83C202.014 157.997 200.273 157.275 198.989 155.991C197.705 154.707 196.983 152.966 196.98 151.15V145C196.983 143.184 197.705 141.443 198.989 140.159C200.273 138.875 202.014 138.153 203.83 138.15H227.78C229.597 138.15 231.339 138.872 232.624 140.156C233.908 141.441 234.63 143.183 234.63 145V151.12C234.634 152.022 234.46 152.916 234.117 153.751C233.775 154.585 233.271 155.344 232.634 155.983C231.998 156.622 231.241 157.13 230.408 157.476C229.575 157.822 228.682 158 227.78 158ZM203.83 143.18C203.348 143.185 202.887 143.378 202.545 143.718C202.203 144.058 202.008 144.518 202 145V151.12C202 151.611 202.195 152.081 202.542 152.428C202.889 152.775 203.359 152.97 203.85 152.97H227.8C228.291 152.97 228.761 152.775 229.108 152.428C229.455 152.081 229.65 151.611 229.65 151.12V145C229.65 144.509 229.455 144.039 229.108 143.692C228.761 143.345 228.291 143.15 227.8 143.15L203.83 143.18Z" fill="#31AAAA"/>
<path opacity="0.2" d="M259.69 164.54H171.93C171.635 164.539 171.343 164.596 171.07 164.708C170.797 164.82 170.549 164.984 170.34 165.193C170.131 165.401 169.965 165.648 169.851 165.92C169.738 166.193 169.68 166.485 169.68 166.78V178.53L215.38 187.53C215.66 187.591 215.95 187.591 216.23 187.53L261.94 178.53V166.78C261.94 166.485 261.882 166.193 261.769 165.92C261.655 165.648 261.489 165.401 261.28 165.193C261.071 164.984 260.823 164.82 260.55 164.708C260.277 164.596 259.985 164.539 259.69 164.54Z" fill="black"/>
<path d="M262 176L216.21 185C215.926 185.05 215.634 185.05 215.35 185L169.56 176C169.057 175.901 168.604 175.63 168.277 175.235C167.951 174.839 167.772 174.343 167.77 173.83V151.73C167.77 151.44 167.827 151.152 167.938 150.884C168.049 150.616 168.212 150.373 168.417 150.167C168.623 149.962 168.866 149.799 169.134 149.688C169.402 149.577 169.69 149.52 169.98 149.52H261.6C261.89 149.52 262.178 149.577 262.446 149.688C262.714 149.799 262.958 149.962 263.163 150.167C263.368 150.373 263.531 150.616 263.642 150.884C263.753 151.152 263.81 151.44 263.81 151.73V173.87C263.8 174.379 263.614 174.869 263.285 175.257C262.955 175.646 262.501 175.908 262 176Z" fill="#31AAAA"/>
<path d="M220.55 179.01H211.08C209.909 179.01 208.96 179.959 208.96 181.13V187.12C208.96 188.291 209.909 189.24 211.08 189.24H220.55C221.721 189.24 222.67 188.291 222.67 187.12V181.13C222.67 179.959 221.721 179.01 220.55 179.01Z" fill="#31AAAA"/>
<path opacity="0.4" d="M220.55 179.01H211.08C209.909 179.01 208.96 179.959 208.96 181.13V187.12C208.96 188.291 209.909 189.24 211.08 189.24H220.55C221.721 189.24 222.67 188.291 222.67 187.12V181.13C222.67 179.959 221.721 179.01 220.55 179.01Z" fill="black"/>
<path d="M380.9 187.21C382.05 189.58 382.9 191.82 383.9 194.16C384.9 196.5 385.63 198.83 386.41 201.22C387.991 206.066 389.159 211.037 389.9 216.08C390 216.71 390.05 217.39 390.12 218.08L390.22 219.08C390.22 219.26 390.22 219.39 390.22 219.6V220.25C390.254 221.766 390.123 223.282 389.83 224.77C389.334 227.356 388.629 229.898 387.72 232.37C386.012 237.069 383.884 241.604 381.36 245.92L376.28 243.77C377.41 239.21 378.55 234.56 379.41 230.07C379.831 227.919 380.128 225.745 380.3 223.56C380.359 222.667 380.339 221.77 380.24 220.88L380.13 220.25L379.99 219.45C379.88 218.92 379.81 218.39 379.68 217.85C378.683 213.436 377.394 209.093 375.82 204.85C375.06 202.68 374.22 200.52 373.38 198.35C372.54 196.18 371.61 194 370.75 192L380.9 187.21Z" fill="#7F3E3B"/>
<path d="M376.5 242.44L372.6 246.24L381.11 250.24C381.11 250.24 383.17 246.64 381.75 243.38L376.5 242.44Z" fill="#7F3E3B"/>
<path d="M369.46 251.91L376.64 254.85L381.11 250.2L372.6 246.24L369.46 251.91Z" fill="#7F3E3B"/>
<path opacity="0.2" d="M223.81 247.81C237.96 246.225 251.323 240.48 262.209 231.301C273.095 222.123 281.014 209.922 284.967 196.243C288.919 182.564 288.727 168.02 284.414 154.449C280.101 140.879 271.862 128.893 260.737 120.005C249.613 111.118 236.102 105.728 221.915 104.518C207.728 103.308 193.5 106.332 181.031 113.207C168.562 120.082 158.411 130.5 151.863 143.144C145.314 155.787 142.661 170.089 144.24 184.24C145.289 193.64 148.179 202.74 152.745 211.023C157.312 219.305 163.466 226.606 170.855 232.51C178.244 238.413 186.724 242.803 195.81 245.428C204.897 248.053 214.411 248.863 223.81 247.81Z" fill="#31AAAA"/>
<path opacity="0.1" d="M171.42 119.54L280.92 207C281.39 206 281.83 205 282.26 204C285.004 197.471 286.757 190.568 287.46 183.52L192.88 108C185.118 110.588 177.859 114.492 171.42 119.54Z" fill="white"/>
<path opacity="0.1" d="M146.16 157.87L249.1 240.12C258.881 235.019 267.359 227.738 273.88 218.84L161.46 129C154.215 137.324 148.98 147.201 146.16 157.87Z" fill="white"/>
<path d="M393.17 257.12C393.038 255.3 392.443 253.544 391.44 252.02C390.711 250.899 389.692 249.997 388.49 249.41L381.66 246.06C377.12 243.81 372.55 241.62 367.98 239.43C363.41 237.24 358.81 235.09 354.23 232.92C349.65 230.75 345.03 228.64 340.4 226.57C331.16 222.383 321.86 218.31 312.5 214.35C307.82 212.35 303.13 210.43 298.4 208.55C297.019 208.006 295.896 206.958 295.26 205.617C294.623 204.277 294.519 202.744 294.97 201.33C301.301 181.368 299.86 159.752 290.933 140.807C282.007 121.863 266.255 106.989 246.83 99.1635C227.406 91.3377 205.742 91.1372 186.176 98.6023C166.61 106.067 150.585 120.647 141.31 139.423C132.034 158.199 130.193 179.785 136.154 199.861C142.115 219.936 155.438 237.02 173.457 247.691C191.476 258.362 212.861 261.834 233.33 257.412C253.8 252.989 271.844 240.998 283.85 223.84C284.7 222.62 285.982 221.769 287.435 221.459C288.889 221.149 290.406 221.403 291.68 222.17C296.053 224.77 300.447 227.327 304.86 229.84C313.68 234.867 322.567 239.767 331.52 244.54C335.99 246.96 340.52 249.29 344.97 251.66C349.42 254.03 353.97 256.34 358.5 258.66C363.03 260.98 367.5 263.25 372.09 265.49L378.9 268.87C380.096 269.472 381.435 269.734 382.77 269.63C384.587 269.501 386.341 268.905 387.86 267.9C389.672 266.787 391.132 265.184 392.072 263.277C393.011 261.369 393.392 259.235 393.17 257.12ZM186.8 235C175.175 229.264 165.512 220.209 159.034 208.981C152.555 197.753 149.552 184.855 150.404 171.92C151.255 158.985 155.924 146.593 163.818 136.311C171.713 126.029 182.48 118.32 194.756 114.157C207.033 109.994 220.268 109.566 232.788 112.926C245.309 116.285 256.551 123.282 265.095 133.032C273.638 142.782 279.098 154.846 280.785 167.699C282.471 180.552 280.309 193.616 274.57 205.24C270.761 212.957 265.47 219.849 258.998 225.521C252.525 231.194 244.999 235.536 236.849 238.299C228.699 241.063 220.084 242.194 211.496 241.628C202.909 241.061 194.517 238.809 186.8 235Z" fill="#31AAAA"/>
<path d="M343.19 156.3C343.19 156.89 342.88 157.37 342.49 157.37C342.1 157.37 341.79 156.89 341.79 156.3C341.79 155.71 342.1 155.22 342.49 155.22C342.88 155.22 343.19 155.7 343.19 156.3Z" fill="#263238"/>
<path d="M342.93 157.37C342.227 159.181 341.278 160.887 340.11 162.44C340.515 162.729 340.977 162.927 341.466 163.018C341.955 163.11 342.458 163.093 342.94 162.97L342.93 157.37Z" fill="#630F0F"/>
<path d="M345.29 153C345.363 152.998 345.433 152.973 345.491 152.93C345.549 152.886 345.592 152.825 345.614 152.756C345.636 152.687 345.636 152.612 345.613 152.543C345.591 152.474 345.548 152.414 345.49 152.37C345.048 152.039 344.534 151.817 343.99 151.723C343.446 151.629 342.887 151.666 342.36 151.83C342.313 151.843 342.269 151.865 342.231 151.896C342.193 151.927 342.162 151.966 342.14 152.01C342.118 152.053 342.105 152.101 342.102 152.15C342.1 152.199 342.108 152.248 342.125 152.293C342.143 152.339 342.17 152.38 342.204 152.415C342.239 152.45 342.281 152.477 342.326 152.494C342.372 152.512 342.421 152.52 342.47 152.517C342.519 152.515 342.566 152.502 342.61 152.48C343.03 152.355 343.473 152.331 343.904 152.409C344.335 152.487 344.741 152.666 345.09 152.93C345.146 152.976 345.217 153.001 345.29 153Z" fill="#263238"/>
<path d="M363.42 160.76C362.36 166.14 361.31 175.99 365.07 179.57C365.07 179.57 363.6 185.02 353.62 185.02C342.62 185.02 348.37 179.57 348.37 179.57C354.37 178.14 354.21 173.69 353.16 169.57L363.42 160.76Z" fill="#7F3E3B"/>
<path d="M367 176.2C367.83 176.47 366.75 181.41 366.75 181.41C366.75 181.41 365.38 184.86 348.36 183.66C347.05 183.56 347.55 178.82 348.8 178.13C352.83 175.93 364.32 175.32 367 176.2Z" fill="#263238"/>
<path d="M401.57 382.81C402.49 382.72 403.83 381.03 404.21 380.41C404.227 380.383 404.236 380.352 404.236 380.32C404.236 380.288 404.227 380.257 404.21 380.23C404.194 380.2 404.168 380.177 404.138 380.162C404.107 380.148 404.073 380.144 404.04 380.15C403.94 380.15 401.52 380.61 400.93 381.55C400.868 381.649 400.827 381.759 400.809 381.874C400.792 381.99 400.799 382.108 400.83 382.22C400.96 382.66 401.21 382.78 401.41 382.81H401.57ZM403.68 380.58C403.03 381.48 401.96 382.53 401.45 382.46C401.4 382.46 401.25 382.46 401.16 382.12C401.14 382.055 401.136 381.986 401.146 381.918C401.156 381.851 401.182 381.786 401.22 381.73C401.909 381.113 402.765 380.713 403.68 380.58Z" fill="#31AAAA"/>
<path d="M403.58 380.58C403.759 380.565 403.936 380.535 404.11 380.49C404.139 380.481 404.166 380.464 404.187 380.441C404.208 380.418 404.223 380.39 404.23 380.36C404.236 380.329 404.233 380.297 404.223 380.267C404.212 380.237 404.194 380.211 404.17 380.19C404.11 380.13 402.49 378.75 401.39 378.86C401.258 378.869 401.129 378.905 401.011 378.967C400.894 379.029 400.792 379.115 400.71 379.22C400.616 379.311 400.557 379.432 400.544 379.562C400.531 379.692 400.565 379.823 400.64 379.93C401 380.5 402.58 380.68 403.58 380.58ZM403.66 380.23C402.66 380.35 401.2 380.15 400.92 379.74C400.92 379.74 400.84 379.61 400.98 379.43C401.036 379.364 401.105 379.31 401.182 379.27C401.259 379.231 401.344 379.207 401.43 379.2C402.259 379.315 403.035 379.673 403.66 380.23Z" fill="#31AAAA"/>
<path d="M332.82 409.11C333.578 409.107 334.334 409.04 335.08 408.91C335.113 408.901 335.144 408.883 335.169 408.859C335.193 408.834 335.211 408.803 335.22 408.77C335.226 408.734 335.221 408.698 335.204 408.665C335.188 408.633 335.162 408.607 335.13 408.59C335.02 408.52 332.46 407.06 331.23 407.39C331 407.449 330.802 407.596 330.68 407.8C330.602 407.911 330.56 408.044 330.56 408.18C330.56 408.316 330.602 408.449 330.68 408.56C331 409 331.88 409.11 332.82 409.11ZM334.52 408.65C333.15 408.84 331.29 408.83 330.95 408.36C330.9 408.3 330.86 408.19 330.95 407.97C330.987 407.908 331.036 407.855 331.094 407.814C331.153 407.772 331.22 407.744 331.29 407.73C332.08 407.52 333.62 408.19 334.52 408.65Z" fill="#31AAAA"/>
<path d="M335 408.91C335.036 408.92 335.074 408.92 335.11 408.91C335.133 408.89 335.151 408.866 335.163 408.838C335.176 408.81 335.181 408.78 335.18 408.75C335.18 408.67 334.97 406.69 334.04 405.92C333.902 405.805 333.743 405.719 333.571 405.668C333.399 405.616 333.218 405.6 333.04 405.62C332.56 405.67 332.43 405.91 332.39 406.11C332.26 406.94 334.02 408.53 334.9 408.93L335 408.91ZM333.21 405.91C333.433 405.916 333.648 405.997 333.82 406.14C334.375 406.774 334.724 407.563 334.82 408.4C333.91 407.86 332.72 406.61 332.82 406.11C332.82 406.11 332.82 405.95 333.16 405.92L333.21 405.91Z" fill="#31AAAA"/>
<path d="M343.12 408.74H335.78L335.04 391.72H342.39L343.12 408.74Z" fill="#7F3E3B"/>
<path d="M410.63 375.03L404.9 379.62L390.32 369.5L396.06 364.91L410.63 375.03Z" fill="#7F3E3B"/>
<path d="M403.85 379.33L409.71 373.52C409.815 373.419 409.951 373.356 410.096 373.341C410.241 373.327 410.387 373.362 410.51 373.44L416.14 377.06C416.277 377.148 416.391 377.267 416.475 377.406C416.559 377.545 416.61 377.701 416.625 377.863C416.639 378.025 416.617 378.188 416.559 378.34C416.501 378.492 416.409 378.629 416.29 378.74C414.21 380.74 413.1 381.6 410.52 384.15C408.94 385.73 405.07 390.43 402.88 392.6C400.69 394.77 398.25 392.89 398.96 391.8C402.11 386.94 403.18 382.93 403.32 380.49C403.35 380.052 403.538 379.64 403.85 379.33Z" fill="#263238"/>
<path d="M335.82 407.89H343.82C343.965 407.889 344.106 407.939 344.219 408.03C344.332 408.121 344.41 408.248 344.44 408.39L345.89 414.92C345.927 415.077 345.927 415.24 345.891 415.397C345.855 415.554 345.783 415.701 345.682 415.826C345.581 415.952 345.452 416.052 345.307 416.12C345.161 416.189 345.001 416.223 344.84 416.22C341.94 416.22 337.76 416.01 334.12 416.01C329.87 416.01 326.2 416.24 321.21 416.24C318.21 416.24 317.36 413.19 318.62 412.91C324.37 411.66 329.06 411.52 334.02 408.46C334.555 408.106 335.179 407.908 335.82 407.89Z" fill="#263238"/>
<path d="M379.55 181.77C385.92 184.77 388.55 205.33 388.55 205.33L373.9 211.08C371.626 205.513 369.784 199.78 368.39 193.93C366.34 184.65 373 178.65 379.55 181.77Z" fill="#31AAAA"/>
<path opacity="0.3" d="M379.55 181.77C385.92 184.77 388.55 205.33 388.55 205.33L373.9 211.08C371.626 205.513 369.784 199.78 368.39 193.93C366.34 184.65 373 178.65 379.55 181.77Z" fill="white"/>
<path opacity="0.2" d="M370.06 187.8C369.561 187.558 369.038 187.367 368.5 187.23C367.916 189.423 367.895 191.727 368.44 193.93C369.828 199.78 371.667 205.514 373.94 211.08L378.77 209.19C377.88 203.82 375.15 190.24 370.06 187.8Z" fill="black"/>
<path d="M337.07 181.61C337.07 181.61 329.25 190.44 336.63 245.11H375.93C376.2 239.11 372.41 209.65 378.23 181.23C373.884 180.394 369.488 179.84 365.07 179.57C359.508 179.25 353.932 179.25 348.37 179.57C344.556 179.954 340.778 180.636 337.07 181.61Z" fill="#31AAAA"/>
<path opacity="0.3" d="M337.07 181.61C337.07 181.61 329.25 190.44 336.63 245.11H375.93C376.2 239.11 372.41 209.65 378.23 181.23C373.884 180.394 369.488 179.84 365.07 179.57C359.508 179.25 353.932 179.25 348.37 179.57C344.556 179.954 340.778 180.636 337.07 181.61Z" fill="white"/>
<path opacity="0.2" d="M345 193.33C343.22 187.99 338.94 186.28 334.58 189.45C333.7 194.63 333.08 202.98 333.79 216.22L341.46 216.15C341.46 216.15 347.63 201.28 345 193.33Z" fill="black"/>
<path d="M343.56 191.14C343.24 193.82 342.8 196.25 342.31 198.78C341.82 201.31 341.25 203.78 340.6 206.27C339.317 211.359 337.569 216.32 335.38 221.09C334.81 222.32 334.15 223.53 333.45 224.74C333.09 225.35 332.73 225.96 332.32 226.56C331.788 227.394 331.161 228.162 330.45 228.85C329.07 230.13 327.434 231.101 325.65 231.7C324.201 232.208 322.703 232.56 321.18 232.75C318.462 233.087 315.715 233.121 312.99 232.85C311.657 232.743 310.357 232.573 309.09 232.34C307.79 232.11 306.56 231.87 305.22 231.52L305.87 226.04C310.434 225.848 314.966 225.178 319.39 224.04C320.29 223.774 321.164 223.426 322 223C322.549 222.748 323.03 222.367 323.4 221.89C323.32 221.96 324.05 220.75 324.48 219.89C324.91 219.03 325.39 217.89 325.8 216.89C326.64 214.83 327.36 212.65 328.02 210.42C328.68 208.19 329.26 205.92 329.8 203.62C330.34 201.32 330.8 199 331.3 196.62C331.8 194.24 332.16 191.88 332.52 189.67L343.56 191.14Z" fill="#7F3E3B"/>
<path d="M346.89 187C348.96 193.71 340.56 213.71 340.56 213.71L322.87 209.26C323.953 202.938 325.775 196.766 328.3 190.87C334 178.39 344.4 178.91 346.89 187Z" fill="#31AAAA"/>
<path opacity="0.3" d="M346.89 187C348.96 193.71 340.56 213.71 340.56 213.71L322.87 209.26C323.953 202.938 325.775 196.766 328.3 190.87C334 178.39 344.4 178.91 346.89 187Z" fill="white"/>
<path d="M306.12 226.07L297.8 225.86L301.8 234.51C301.8 234.51 305.18 234.96 307.96 230.39L310.89 226.9L307.52 226.22C307.058 226.13 306.59 226.08 306.12 226.07Z" fill="#7F3E3B"/>
<path d="M292.55 227.47L297.32 234.64L301.81 234.51L297.8 225.86L292.55 227.47Z" fill="#7F3E3B"/>
<path opacity="0.2" d="M335.05 391.73L335.42 400.5H342.77L342.39 391.73H335.05Z" fill="black"/>
<path opacity="0.2" d="M396.06 364.91L390.32 369.5L397.84 374.72L403.58 370.13L396.06 364.91Z" fill="black"/>
<path d="M363 155C362.56 162.28 362.68 166.56 359 170.3C353.48 175.92 344.49 172.6 342.75 165.3C341.18 158.76 342.17 147.96 349.29 145.05C350.86 144.401 352.57 144.164 354.258 144.364C355.945 144.564 357.553 145.193 358.928 146.191C360.303 147.188 361.399 148.522 362.112 150.064C362.825 151.607 363.131 153.306 363 155Z" fill="#7F3E3B"/>
<path d="M368.88 148.24C368.88 148.24 372.71 149.38 371.51 153.75C369.7 160.39 365.44 168.03 359.94 168.51C353.09 169.12 350 162.05 349.1 154.74C345 151.93 341.96 149.3 342.94 146.38C344.44 141.88 349.88 138 358.54 139C367.2 140 371.51 145.6 368.88 148.24Z" fill="#263238"/>
<path d="M353.27 156.24C353.137 158.046 352.413 159.757 351.21 161.11C349.61 162.87 347.93 161.77 347.65 159.63C347.4 157.69 347.92 154.44 349.88 153.47C351.84 152.5 353.4 154.06 353.27 156.24Z" fill="#7F3E3B"/>
<path d="M350.57 245.11C350.57 245.11 348.09 294.63 352.92 315.61C360.57 348.83 394.2 375.45 394.2 375.45L405 366.8C405 366.8 377.33 346.21 374.84 318.55C372.61 293.71 375.91 265.18 375.91 245.11H350.57Z" fill="#31AAAA"/>
<path opacity="0.2" d="M350.57 245.11C350.57 245.11 348.09 294.63 352.92 315.61C360.57 348.83 394.2 375.45 394.2 375.45L405 366.8C405 366.8 377.33 346.21 374.84 318.55C372.61 293.71 375.91 265.18 375.91 245.11H350.57Z" fill="black"/>
<path opacity="0.2" d="M354.26 259.78C353.26 257.85 351.31 263.6 349.95 270.98C349.95 281.16 350.13 292.74 351.02 302.55C357.81 290 356.37 263.78 354.26 259.78Z" fill="black"/>
<path d="M389.3 373.32L393.4 376.5L405.87 366.39L402.13 363L389.3 373.32Z" fill="#2C6BDB"/>
<path opacity="0.4" d="M389.3 373.32L393.4 376.5L405.87 366.39L402.13 363L389.3 373.32Z" fill="#FAFAFA"/>
<path d="M336.63 245.11C336.63 245.11 325.57 292.01 324.79 314.41C323.92 339.54 332.68 398.8 332.68 398.8H345.13C345.13 398.8 346.66 339.08 347.22 316.19C347.82 291.24 362.46 245.11 362.46 245.11H336.63Z" fill="#31AAAA"/>
<path opacity="0.2" d="M336.63 245.11C336.63 245.11 325.57 292.01 324.79 314.41C323.92 339.54 332.68 398.8 332.68 398.8H345.13C345.13 398.8 346.66 339.08 347.22 316.19C347.82 291.24 362.46 245.11 362.46 245.11H336.63Z" fill="black"/>
<path d="M330.29 393.84C330.23 393.84 330.99 399.01 330.99 399.01H346.13L346.54 394.4L330.29 393.84Z" fill="#2C6BDB"/>
<path opacity="0.4" d="M330.29 393.84C330.23 393.84 330.99 399.01 330.99 399.01H346.13L346.54 394.4L330.29 393.84Z" fill="#FAFAFA"/>
</svg>
