<svg width="46" height="45" viewBox="0 0 46 45" fill="none" xmlns="http://www.w3.org/2000/svg">
<path d="M0 8C0 3.58172 3.58172 0 8 0H38C42.4183 0 46 3.58172 46 8V37C46 41.4183 42.4183 45 38 45H8C3.58172 45 0 41.4183 0 37V8Z" fill="#797979"/>
<path d="M3.64367 36.1204C3.35573 36.1539 3.13199 36.2918 2.97244 36.5339C2.81289 36.776 2.73279 37.0732 2.73212 37.4255C2.73164 37.683 2.77288 37.9085 2.85585 38.1018C2.93882 38.2933 3.05313 38.4431 3.19876 38.5514C3.34439 38.6577 3.51001 38.711 3.69561 38.7114C3.85092 38.7117 3.98451 38.675 4.09639 38.6013C4.20638 38.5258 4.29842 38.4294 4.3725 38.3121C4.44469 38.1948 4.50459 38.0718 4.55218 37.9431C4.59787 37.8144 4.63503 37.6961 4.66364 37.5882L4.82384 36.9976C4.8639 36.8462 4.91914 36.6777 4.98957 36.4922C5.06 36.3049 5.15598 36.1261 5.27751 35.9558C5.39715 35.7837 5.55083 35.642 5.73854 35.5306C5.92625 35.4192 6.15647 35.3637 6.42919 35.3643C6.74359 35.3648 7.02752 35.4478 7.281 35.613C7.53448 35.7764 7.73574 36.0154 7.88477 36.3301C8.0338 36.6428 8.10789 37.0227 8.10705 37.4697C8.10627 37.8864 8.03835 38.247 7.90331 38.5517C7.76827 38.8545 7.58032 39.0927 7.33946 39.2665C7.09861 39.4384 6.81907 39.5354 6.50084 39.5576L6.50221 38.8303C6.72195 38.8118 6.9039 38.7383 7.04808 38.6097C7.19038 38.4793 7.29675 38.3148 7.3672 38.116C7.43576 37.9154 7.47025 37.6995 7.47069 37.4685C7.4712 37.1995 7.42809 36.958 7.34137 36.7438C7.25276 36.5296 7.12997 36.3599 6.97301 36.2346C6.81416 36.1093 6.62867 36.0464 6.41655 36.046C6.22337 36.0457 6.06607 36.0994 5.94465 36.2071C5.82324 36.3148 5.72449 36.4567 5.6484 36.6327C5.57231 36.8087 5.50566 36.9989 5.44846 37.2033L5.24256 37.9188C5.11103 38.3731 4.9238 38.7326 4.68087 38.9973C4.43795 39.262 4.12047 39.394 3.72842 39.3933C3.40266 39.3926 3.11874 39.304 2.87665 39.1275C2.63267 38.949 2.44372 38.71 2.30981 38.4105C2.17402 38.1091 2.10647 37.7728 2.10717 37.4016C2.10787 37.0266 2.17574 36.6934 2.31076 36.402C2.44388 36.1105 2.62613 35.8798 2.85751 35.7098C3.0889 35.5379 3.35138 35.4475 3.64496 35.4386L3.64367 36.1204Z" fill="#B4ADC7"/>
<path d="M8.1051 32.4704C8.10431 32.8908 8.01082 33.2533 7.82464 33.5579C7.63657 33.8606 7.37477 34.094 7.03923 34.2582C6.70181 34.4204 6.30961 34.5011 5.86264 34.5003C5.41567 34.4994 5.02188 34.4172 4.68128 34.2537C4.33879 34.0883 4.07218 33.8586 3.88144 33.5647C3.68882 33.2689 3.59288 32.924 3.59362 32.5301C3.59405 32.3028 3.63235 32.0784 3.70852 31.857C3.7847 31.6355 3.90818 31.4341 4.07898 31.2526C4.24788 31.0711 4.47164 30.9266 4.75025 30.8192C5.02886 30.7117 5.37177 30.6584 5.77896 30.6592L6.06305 30.6597L6.05672 34.0233L5.47717 34.0223L5.48222 31.3404C5.23601 31.34 5.01622 31.3888 4.82286 31.4869C4.62949 31.5832 4.47677 31.7211 4.36469 31.9008C4.25261 32.0787 4.19635 32.2888 4.19589 32.5312C4.19539 32.7982 4.26124 33.0294 4.39345 33.2248C4.52376 33.4182 4.69394 33.5672 4.90397 33.6717C5.114 33.7763 5.33928 33.8288 5.57981 33.8293L5.96617 33.83C6.29572 33.8306 6.57518 33.7743 6.80456 33.6611C7.03205 33.546 7.20565 33.3863 7.32535 33.182C7.44316 32.9777 7.50232 32.7401 7.50283 32.4692C7.50316 32.2931 7.47884 32.134 7.42986 31.9918C7.379 31.8478 7.30348 31.7236 7.20329 31.6193C7.10122 31.5149 6.97447 31.4342 6.82307 31.3771L7.0061 30.7297C7.22567 30.7983 7.41864 30.9132 7.585 31.0745C7.74947 31.2358 7.87788 31.4349 7.97024 31.6718C8.0607 31.9087 8.10566 32.1749 8.1051 32.4704Z" fill="#B4ADC7"/>
<path d="M8.12421 28.3596C8.12368 28.6361 8.07113 28.887 7.96654 29.1122C7.86005 29.3373 7.70725 29.516 7.50814 29.6482C7.30713 29.7804 7.06459 29.8463 6.7805 29.8457C6.5305 29.8453 6.32794 29.7956 6.17282 29.6969C6.01581 29.5981 5.89295 29.4662 5.80425 29.3013C5.71554 29.1363 5.6496 28.9544 5.60641 28.7554C5.56133 28.5546 5.52573 28.3528 5.4996 28.1501C5.466 27.8849 5.44084 27.6699 5.42411 27.5051C5.40548 27.3384 5.37446 27.2171 5.33104 27.1413C5.28763 27.0636 5.21194 27.0246 5.10399 27.0244L5.08126 27.0243C4.80096 27.0238 4.58301 27.1001 4.42742 27.2532C4.27183 27.4044 4.19375 27.6344 4.19316 27.9431C4.19256 28.2632 4.26216 28.5143 4.40197 28.6964C4.54178 28.8784 4.69116 29.0066 4.85011 29.0807L4.62164 29.7167C4.35671 29.6025 4.15055 29.4506 4.00318 29.2609C3.85392 29.0694 3.75015 28.8608 3.69186 28.6354C3.63168 28.408 3.6018 28.1844 3.60221 27.9647C3.60248 27.8246 3.61983 27.6636 3.65426 27.4819C3.6868 27.2982 3.75437 27.1213 3.85696 26.951C3.95956 26.7789 4.11419 26.6362 4.32084 26.5229C4.52749 26.4097 4.80411 26.3534 5.1507 26.354L8.0257 26.3594L8.02444 27.0299L7.43353 27.0288L7.43346 27.0629C7.52808 27.1085 7.62926 27.1844 7.73701 27.2907C7.84477 27.397 7.93636 27.5382 8.01178 27.7145C8.08721 27.8908 8.12468 28.1058 8.12421 28.3596ZM7.52213 28.2562C7.52263 27.9911 7.47096 27.7675 7.36714 27.5855C7.26332 27.4016 7.12911 27.263 6.96451 27.1699C6.79992 27.0749 6.62671 27.0272 6.44489 27.0269L5.83126 27.0257C5.8653 27.0542 5.89643 27.1168 5.92465 27.2134C5.95099 27.3082 5.97446 27.4181 5.99506 27.5431C6.01376 27.6662 6.03058 27.7865 6.04551 27.904C6.05855 28.0196 6.06974 28.1133 6.07908 28.1853C6.10147 28.3596 6.1381 28.5225 6.18895 28.6742C6.23791 28.8239 6.31249 28.9452 6.4127 29.0382C6.51101 29.1293 6.64539 29.175 6.81585 29.1753C7.0488 29.1758 7.2251 29.0899 7.34474 28.9178C7.4625 28.7438 7.52162 28.5233 7.52213 28.2562Z" fill="#B4ADC7"/>
<path d="M8.028 25.1357L3.66437 25.1275L3.66559 24.4798L4.32468 24.481L4.32477 24.4356C4.10901 24.3556 3.93409 24.2113 3.80001 24.0027C3.66594 23.7942 3.59915 23.5592 3.59964 23.2978C3.59973 23.2486 3.60079 23.187 3.60283 23.1132C3.60486 23.0393 3.60781 22.9834 3.61166 22.9456L4.29348 22.9469C4.28776 22.9696 4.27914 23.0216 4.26762 23.1031C4.25421 23.1826 4.24742 23.2668 4.24726 23.3559C4.24686 23.568 4.29101 23.7575 4.37971 23.9243C4.46652 24.0892 4.58749 24.2201 4.74261 24.317C4.89584 24.412 5.07094 24.4597 5.26791 24.4601L8.02927 24.4653L8.028 25.1357Z" fill="#B4ADC7"/>
<path d="M8.1276 20.5194C8.12683 20.9285 8.02958 21.2806 7.83584 21.5757C7.6421 21.8708 7.37558 22.0975 7.03626 22.256C6.69695 22.4144 6.30949 22.4933 5.87389 22.4924C5.4307 22.4916 5.03976 22.4094 4.70105 22.2459C4.36045 22.0805 4.09479 21.8508 3.90405 21.5569C3.71143 21.2611 3.61549 20.9162 3.61623 20.5223C3.61681 20.2155 3.67414 19.9391 3.78824 19.6931C3.90234 19.4471 4.06181 19.2457 4.26665 19.0888C4.4715 18.932 4.71032 18.8349 4.98311 18.7976L4.98185 19.468C4.78289 19.5188 4.60654 19.6321 4.4528 19.8079C4.29717 19.9819 4.21908 20.2166 4.21852 20.512C4.21803 20.7734 4.28578 21.0027 4.42177 21.1999C4.55587 21.3953 4.74593 21.5481 4.99193 21.6584C5.23605 21.7668 5.52288 21.8213 5.85242 21.8219C6.18954 21.8226 6.4832 21.7701 6.7334 21.6645C6.9836 21.557 7.17802 21.4059 7.31664 21.2111C7.45527 21.0144 7.52483 20.7834 7.52533 20.5183C7.52566 20.344 7.49566 20.1858 7.43532 20.0437C7.37498 19.9015 7.28808 19.7811 7.17463 19.6824C7.06118 19.5837 6.92495 19.5134 6.76594 19.4714L6.7672 18.8009C7.02471 18.8393 7.25654 18.9335 7.46269 19.0835C7.66696 19.2316 7.82947 19.4279 7.95022 19.6725C8.06908 19.9151 8.12821 20.1974 8.1276 20.5194Z" fill="#B4ADC7"/>
<path d="M5.41804 17.1478L8.04303 17.1528L8.04177 17.8232L2.2236 17.8123L2.22486 17.1418L4.36122 17.1458L4.36133 17.089C4.13614 16.9863 3.95746 16.8326 3.82527 16.6278C3.69119 16.4211 3.62447 16.1463 3.62511 15.8035C3.62567 15.5062 3.68582 15.2459 3.80556 15.0226C3.92341 14.7994 4.1046 14.6264 4.34915 14.5038C4.59181 14.3792 4.90064 14.3173 5.27564 14.318L8.04836 14.3232L8.0471 14.9937L5.31983 14.9885C4.97324 14.9879 4.70508 15.0773 4.51535 15.2569C4.32373 15.4346 4.22762 15.6816 4.22702 15.9979C4.22661 16.2175 4.27264 16.4146 4.36511 16.589C4.45759 16.7615 4.59275 16.8982 4.77059 16.9989C4.94844 17.0977 5.16425 17.1473 5.41804 17.1478Z" fill="#B4ADC7"/>
<path d="M8.05067 13.0967L3.68704 13.0884L3.68831 12.418L8.05194 12.4262L8.05067 13.0967ZM2.96041 12.7462C2.96017 12.8769 2.91545 12.9895 2.82626 13.084C2.73707 13.1766 2.62997 13.2228 2.50497 13.2226C2.37997 13.2224 2.27305 13.1757 2.18421 13.0828C2.09537 12.9879 2.05108 12.8751 2.05133 12.7445C2.05157 12.6138 2.09629 12.5021 2.18548 12.4095C2.27467 12.315 2.38177 12.2678 2.50677 12.268C2.63177 12.2683 2.73869 12.3158 2.82752 12.4107C2.91636 12.5037 2.96066 12.6155 2.96041 12.7462Z" fill="#B4ADC7"/>
<path d="M5.43051 10.5228L8.05551 10.5278L8.05425 11.1982L3.69062 11.19L3.69184 10.5423L4.37366 10.5436L4.37376 10.4868C4.15236 10.3841 3.97463 10.2284 3.84055 10.0198C3.70458 9.81125 3.6369 9.54218 3.63752 9.21264C3.63808 8.91718 3.69917 8.65878 3.8208 8.43741C3.94054 8.21605 4.12268 8.04404 4.36723 7.9214C4.60988 7.79875 4.91682 7.73777 5.28803 7.73847L8.06075 7.74369L8.05949 8.41415L5.33222 8.40901C4.98942 8.40837 4.72221 8.49688 4.53058 8.67455C4.33707 8.85221 4.24002 9.09635 4.23943 9.40695C4.23903 9.62097 4.28507 9.81234 4.37756 9.98108C4.47004 10.1479 4.60521 10.2798 4.78306 10.3767C4.96091 10.4737 5.17673 10.5224 5.43051 10.5228Z" fill="#B4ADC7"/>
<path d="M9.79364 4.76044C9.79304 5.08431 9.75085 5.36264 9.66707 5.59544C9.5852 5.82824 9.47688 6.02216 9.34211 6.17721C9.20925 6.33037 9.06697 6.45226 8.91529 6.54288L8.54129 6.00809C8.62095 5.94763 8.71201 5.8711 8.81445 5.77849C8.9188 5.68588 9.009 5.55916 9.08506 5.39832C9.16301 5.23558 9.20224 5.02259 9.20274 4.75933C9.2034 4.40706 9.11872 4.11618 8.9487 3.88669C8.77868 3.65721 8.51185 3.54212 8.14821 3.54144L7.26185 3.53977L7.26174 3.59658C7.34119 3.64598 7.43955 3.71624 7.5568 3.80737C7.67216 3.8966 7.77514 4.02558 7.86573 4.19431C7.95443 4.36115 7.99852 4.58661 7.99798 4.8707C7.99732 5.22297 7.91339 5.5391 7.74619 5.81909C7.579 6.09719 7.33616 6.31737 7.01768 6.47965C6.69919 6.64004 6.31268 6.7198 5.85813 6.71895C5.41116 6.71811 5.02211 6.63877 4.69096 6.48095C4.35793 6.32313 4.10076 6.10389 3.91947 5.82325C3.73629 5.5426 3.64504 5.21856 3.64574 4.85114C3.64627 4.56705 3.69404 4.34176 3.78905 4.17527C3.88218 4.00689 3.98848 3.8783 4.10796 3.78951C4.22556 3.69882 4.32228 3.62893 4.39813 3.57983L4.39826 3.51165L3.70508 3.51034L3.7063 2.86262L8.19493 2.87107C8.56993 2.87177 8.87469 2.95757 9.10922 3.12847C9.34564 3.29748 9.51851 3.52508 9.62782 3.81127C9.73903 4.09557 9.7943 4.41196 9.79364 4.76044ZM7.39588 4.77866C7.39639 4.50972 7.33526 4.28233 7.2125 4.09649C7.08975 3.91065 6.91293 3.76922 6.68205 3.6722C6.45117 3.57517 6.17475 3.52636 5.85278 3.52575C5.53839 3.52516 5.26084 3.57198 5.02013 3.66623C4.77942 3.76047 4.59071 3.90027 4.454 4.08562C4.31728 4.27097 4.24867 4.5 4.24816 4.77273C4.24762 5.05682 4.31915 5.2937 4.46273 5.48336C4.60632 5.67113 4.79923 5.8126 5.04148 5.90775C5.28373 6.00101 5.55258 6.04792 5.84803 6.04847C6.15106 6.04904 6.41914 6.0022 6.65227 5.90794C6.88352 5.81179 7.0656 5.67008 7.19853 5.48283C7.32957 5.29368 7.39535 5.05896 7.39588 4.77866Z" fill="#B4ADC7"/>
<path d="M15.3232 5.10298C15.2829 4.95384 15.2237 4.82244 15.1456 4.70881C15.0675 4.5928 14.9716 4.49455 14.858 4.41406C14.7443 4.33357 14.6141 4.2732 14.4673 4.23295C14.3205 4.19034 14.1596 4.16903 13.9844 4.16903C13.6316 4.16903 13.3262 4.25426 13.0682 4.42472C12.8125 4.59517 12.6148 4.84375 12.4751 5.17045C12.3355 5.49479 12.2656 5.88897 12.2656 6.35298C12.2656 6.81937 12.3331 7.21709 12.468 7.54616C12.603 7.87524 12.7983 8.12618 13.054 8.29901C13.3097 8.47183 13.6198 8.55824 13.9844 8.55824C14.3063 8.55824 14.5786 8.50616 14.8011 8.40199C15.026 8.29545 15.1965 8.14512 15.3125 7.95099C15.4285 7.75687 15.4865 7.52841 15.4865 7.26562L15.8132 7.30469H14.0447V6.02273H17.1804V6.98509C17.1804 7.63613 17.0419 8.19365 16.7649 8.65767C16.4903 9.12169 16.1115 9.47798 15.6286 9.72656C15.148 9.97514 14.5952 10.0994 13.9702 10.0994C13.2765 10.0994 12.6669 9.9491 12.1413 9.64844C11.6158 9.34777 11.2062 8.91927 10.9126 8.36293C10.6191 7.80421 10.4723 7.14133 10.4723 6.37429C10.4723 5.7777 10.5611 5.24858 10.7386 4.78693C10.9162 4.32292 11.1636 3.92992 11.4808 3.60795C11.8004 3.28598 12.1697 3.04214 12.5888 2.87642C13.0102 2.7107 13.4635 2.62784 13.9489 2.62784C14.3703 2.62784 14.7621 2.68821 15.1243 2.80895C15.4889 2.92969 15.8108 3.10014 16.0902 3.32031C16.3719 3.54048 16.6004 3.80208 16.7756 4.10511C16.9508 4.40814 17.0597 4.74077 17.1023 5.10298H15.3232Z" fill="#31AAAA"/>
<path d="M18.5582 10V4.54545H20.2947V10H18.5582ZM19.4283 3.9098C19.1844 3.9098 18.9749 3.82931 18.7997 3.66832C18.6245 3.50497 18.5369 3.30848 18.5369 3.07884C18.5369 2.85156 18.6245 2.65743 18.7997 2.49645C18.9749 2.3331 19.1844 2.25142 19.4283 2.25142C19.6745 2.25142 19.884 2.3331 20.0568 2.49645C20.232 2.65743 20.3196 2.85156 20.3196 3.07884C20.3196 3.30848 20.232 3.50497 20.0568 3.66832C19.884 3.82931 19.6745 3.9098 19.4283 3.9098Z" fill="#31AAAA"/>
<path d="M24.4789 4.54545V5.82386H21.0378V4.54545H24.4789ZM21.7587 3.23864H23.4952V8.2848C23.4952 8.39134 23.5118 8.47775 23.5449 8.54403C23.5804 8.60795 23.6313 8.65412 23.6976 8.68253C23.7639 8.70857 23.8432 8.72159 23.9355 8.72159C24.0018 8.72159 24.0717 8.71567 24.1451 8.70384C24.2208 8.68963 24.2776 8.67779 24.3155 8.66832L24.5783 9.92188C24.4954 9.94555 24.3783 9.97514 24.2267 10.0107C24.0776 10.0462 23.8989 10.0687 23.6905 10.0781C23.2833 10.0971 22.9341 10.0497 22.6429 9.93608C22.3541 9.82008 22.1328 9.64015 21.9789 9.39631C21.8274 9.15246 21.754 8.84588 21.7587 8.47656V3.23864Z" fill="#31AAAA"/>
<path d="M27.2186 6.8892V10H25.4821V2.72727H27.1618V5.54688H27.2221C27.3452 5.2107 27.5465 4.94792 27.8258 4.75852C28.1075 4.56913 28.452 4.47443 28.8592 4.47443C29.2427 4.47443 29.5765 4.55966 29.8606 4.73011C30.1447 4.8982 30.3649 5.13613 30.5211 5.44389C30.6797 5.75166 30.7579 6.11151 30.7555 6.52344V10H29.019V6.86435C29.0214 6.56132 28.9456 6.32457 28.7917 6.15412C28.6378 5.98366 28.4212 5.89844 28.1419 5.89844C27.9596 5.89844 27.7986 5.93868 27.6589 6.01918C27.5216 6.0973 27.4139 6.20975 27.3358 6.35653C27.26 6.50331 27.2209 6.68087 27.2186 6.8892Z" fill="#31AAAA"/>
<path d="M35.3587 7.6456V4.54545H37.0916V10H35.4368V8.98438H35.38C35.2592 9.31818 35.0533 9.58333 34.7621 9.77983C34.4732 9.97396 34.1241 10.071 33.7145 10.071C33.3428 10.071 33.0161 9.9858 32.7344 9.81534C32.4527 9.64489 32.2337 9.40696 32.0774 9.10156C31.9212 8.7938 31.8419 8.43395 31.8395 8.02202V4.54545H33.576V7.68111C33.5784 7.97704 33.6565 8.21023 33.8104 8.38068C33.9643 8.55114 34.1738 8.63636 34.4389 8.63636C34.6117 8.63636 34.7668 8.59848 34.9041 8.52273C35.0438 8.4446 35.1539 8.33215 35.2344 8.18537C35.3172 8.03622 35.3587 7.8563 35.3587 7.6456Z" fill="#31AAAA"/>
<path d="M38.1969 10V2.72727H39.9334V5.4794H39.9689C40.04 5.31368 40.1406 5.15388 40.2708 5C40.4034 4.84612 40.5714 4.72064 40.775 4.62358C40.981 4.52415 41.2272 4.47443 41.5137 4.47443C41.8925 4.47443 42.2464 4.57386 42.5755 4.77273C42.9069 4.97159 43.1744 5.27817 43.378 5.69247C43.5816 6.10677 43.6834 6.63471 43.6834 7.27628C43.6834 7.89418 43.5852 8.41146 43.3887 8.82812C43.1945 9.24479 42.9318 9.55729 42.6003 9.76562C42.2712 9.97396 41.9055 10.0781 41.503 10.0781C41.2284 10.0781 40.9905 10.0331 40.7892 9.94318C40.588 9.85322 40.4187 9.73485 40.2814 9.58807C40.1465 9.44129 40.0423 9.28385 39.9689 9.11577H39.9157V10H38.1969ZM39.8979 7.27273C39.8979 7.56629 39.937 7.82197 40.0151 8.03977C40.0956 8.25758 40.2104 8.42685 40.3596 8.54759C40.5111 8.66596 40.6922 8.72514 40.9029 8.72514C41.1159 8.72514 41.2971 8.66596 41.4462 8.54759C41.5953 8.42685 41.7078 8.25758 41.7836 8.03977C41.8617 7.82197 41.9007 7.56629 41.9007 7.27273C41.9007 6.97917 41.8617 6.72467 41.7836 6.50923C41.7078 6.2938 41.5953 6.12689 41.4462 6.00852C41.2994 5.89015 41.1183 5.83097 40.9029 5.83097C40.6898 5.83097 40.5087 5.88897 40.3596 6.00497C40.2104 6.12098 40.0956 6.28669 40.0151 6.50213C39.937 6.71757 39.8979 6.97443 39.8979 7.27273Z" fill="#31AAAA"/>
<path d="M14.6932 12.3636V40H11.3466V12.3636H14.6932Z" fill="white"/>
<path d="M29.9316 40H21.4032V12.3636H30.3095C32.9904 12.3636 35.2844 12.9169 37.1916 14.0234C39.0988 15.121 40.5607 16.6998 41.5772 18.7599C42.5938 20.8111 43.1021 23.267 43.1021 26.1278C43.1021 29.0066 42.5893 31.4851 41.5637 33.5632C40.5382 35.6323 39.0448 37.2247 37.0836 38.3402C35.1225 39.4467 32.7385 40 29.9316 40ZM24.7498 37.0312H29.7157C32.0008 37.0312 33.8945 36.5904 35.3968 35.7088C36.8992 34.8272 38.0192 33.5722 38.7569 31.9439C39.4946 30.3156 39.8635 28.3769 39.8635 26.1278C39.8635 23.8968 39.4991 21.9761 38.7704 20.3658C38.0417 18.7464 36.9532 17.505 35.5048 16.6413C34.0564 15.7687 32.2527 15.3324 30.0936 15.3324H24.7498V37.0312Z" fill="white"/>
</svg>
