<svg width="312" height="96" viewBox="0 0 312 96" fill="none" xmlns="http://www.w3.org/2000/svg">
<path d="M20.749 55.5789C20.5429 53.8289 19.707 52.4704 18.2413 51.5033C16.7755 50.5362 14.9778 50.0526 12.8479 50.0526C11.2906 50.0526 9.92792 50.3059 8.75993 50.8125C7.60339 51.3191 6.69877 52.0156 6.04607 52.9021C5.40482 53.7887 5.08419 54.7961 5.08419 55.9243C5.08419 56.8684 5.30749 57.6801 5.75407 58.3594C6.2121 59.0271 6.7961 59.5855 7.50605 60.0345C8.21601 60.472 8.96032 60.8347 9.73898 61.1225C10.5176 61.3988 11.2333 61.6234 11.886 61.7961L15.4587 62.7632C16.3748 63.0049 17.3939 63.3388 18.5161 63.7648C19.6497 64.1908 20.7318 64.7722 21.7624 65.509C22.8044 66.2344 23.6633 67.1669 24.3389 68.3067C25.0145 69.4465 25.3523 70.8454 25.3523 72.5033C25.3523 74.4145 24.8541 76.1414 23.8579 77.6842C22.8731 79.227 21.4303 80.4531 19.5295 81.3627C17.6401 82.2722 15.3442 82.727 12.6418 82.727C10.1226 82.727 7.94119 82.3183 6.0976 81.5008C4.26545 80.6834 2.82264 79.5436 1.76916 78.0814C0.727131 76.6192 0.137411 74.9211 0 72.9868H4.39714C4.51165 74.3224 4.95823 75.4276 5.73689 76.3026C6.527 77.1661 7.52323 77.8109 8.72557 78.2368C9.93937 78.6513 11.2448 78.8586 12.6418 78.8586C14.2678 78.8586 15.7278 78.5938 17.0217 78.0641C18.3157 77.523 19.3405 76.7747 20.0963 75.8191C20.8521 74.852 21.2299 73.7237 21.2299 72.4342C21.2299 71.2599 20.9036 70.3043 20.2509 69.5674C19.5982 68.8306 18.7394 68.2319 17.6744 67.7714C16.6095 67.3109 15.4587 66.9079 14.222 66.5625L9.89357 65.3191C7.14535 64.5247 4.96968 63.3906 3.36656 61.9169C1.76344 60.4433 0.961874 58.5148 0.961874 56.1316C0.961874 54.1513 1.49434 52.4243 2.55927 50.9507C3.63566 49.4655 5.07847 48.3141 6.88771 47.4967C8.7084 46.6678 10.7409 46.2533 12.9853 46.2533C15.2526 46.2533 17.2679 46.662 19.0314 47.4794C20.7948 48.2854 22.1918 49.3906 23.2224 50.7952C24.2644 52.1998 24.8141 53.7944 24.8713 55.5789H20.749Z" fill="#B4ADC7"/>
<path d="M40.7576 82.5789C38.5786 82.5789 36.6991 82.0954 35.1188 81.1283C33.5484 80.1513 32.3363 78.7895 31.4824 77.0428C30.6383 75.2862 30.2162 73.2434 30.2162 70.9145C30.2162 68.5855 30.6383 66.5329 31.4824 64.7566C32.3363 62.9704 33.5239 61.5789 35.0452 60.5822C36.5764 59.5757 38.3627 59.0724 40.4042 59.0724C41.582 59.0724 42.7451 59.2697 43.8935 59.6645C45.0419 60.0592 46.0872 60.7007 47.0294 61.5888C47.9716 62.4671 48.7225 63.6316 49.282 65.0822C49.8414 66.5329 50.1211 68.3191 50.1211 70.4408V71.9211H32.6896V68.9013H46.5877C46.5877 67.6184 46.3325 66.4737 45.8221 65.4671C45.3216 64.4605 44.6051 63.6661 43.6726 63.0839C42.75 62.5016 41.6606 62.2105 40.4042 62.2105C39.0203 62.2105 37.8229 62.5559 36.8119 63.2467C35.8108 63.9276 35.0403 64.8158 34.5005 65.9112C33.9607 67.0066 33.6908 68.1809 33.6908 69.4342V71.4474C33.6908 73.1645 33.9852 74.6201 34.5741 75.8141C35.1728 76.9984 36.0022 77.9013 37.0622 78.523C38.1222 79.1349 39.354 79.4408 40.7576 79.4408C41.6704 79.4408 42.4949 79.3125 43.231 79.0559C43.9769 78.7895 44.6198 78.3947 45.1596 77.8717C45.6995 77.3388 46.1166 76.6776 46.411 75.8882L49.7678 76.8355C49.4145 77.9803 48.8206 78.9868 47.9864 79.8553C47.1521 80.7138 46.1215 81.3849 44.8946 81.8684C43.6677 82.3421 42.2887 82.5789 40.7576 82.5789Z" fill="#B4ADC7"/>
<path d="M62.0611 82.6382C60.6281 82.6382 59.3276 82.3668 58.1597 81.824C56.9917 81.2714 56.0641 80.477 55.3771 79.4408C54.69 78.3947 54.3465 77.1316 54.3465 75.6513C54.3465 74.3487 54.6017 73.2928 55.1121 72.4836C55.6225 71.6645 56.3046 71.023 57.1585 70.5592C58.0124 70.0954 58.9547 69.75 59.9853 69.523C61.0257 69.2862 62.0709 69.0987 63.1212 68.9605C64.4953 68.7829 65.6093 68.6497 66.4632 68.5609C67.3269 68.4622 67.9551 68.2993 68.3477 68.0724C68.7501 67.8454 68.9513 67.4507 68.9513 66.8882V66.7697C68.9513 65.3092 68.5538 64.1743 67.7588 63.3651C66.9736 62.5559 65.781 62.1513 64.1812 62.1513C62.5224 62.1513 61.222 62.5164 60.2797 63.2467C59.3375 63.977 58.6749 64.7566 58.2922 65.5855L54.9943 64.4013C55.5832 63.0197 56.3684 61.9441 57.3499 61.1743C58.3412 60.3947 59.4209 59.852 60.5889 59.5461C61.7667 59.2303 62.9249 59.0724 64.0634 59.0724C64.7897 59.0724 65.624 59.1612 66.5662 59.3388C67.5183 59.5066 68.436 59.8569 69.3194 60.3898C70.2125 60.9227 70.9536 61.727 71.5425 62.8026C72.1314 63.8783 72.4258 65.3191 72.4258 67.125V82.1053H68.9513V79.0263H68.7746C68.5391 79.5197 68.1465 80.0477 67.5968 80.6102C67.0472 81.1727 66.316 81.6513 65.4032 82.0461C64.4904 82.4408 63.3764 82.6382 62.0611 82.6382ZM62.5912 79.5C63.9653 79.5 65.1234 79.2286 66.0657 78.6859C67.0177 78.1431 67.7342 77.4424 68.2152 76.5839C68.7059 75.7253 68.9513 74.8224 68.9513 73.875V70.6776C68.8041 70.8553 68.4802 71.0181 67.9796 71.1661C67.4889 71.3043 66.9196 71.4276 66.2718 71.5362C65.6338 71.6349 65.0106 71.7237 64.402 71.8026C63.8033 71.8717 63.3175 71.9309 62.9445 71.9803C62.0415 72.0987 61.1974 72.2911 60.4122 72.5576C59.6368 72.8141 59.0087 73.2039 58.5277 73.727C58.0566 74.2401 57.821 74.9408 57.821 75.8289C57.821 77.0428 58.2676 77.9605 59.1608 78.5822C60.0638 79.1941 61.2072 79.5 62.5912 79.5Z" fill="#B4ADC7"/>
<path d="M78.7676 82.1053V59.3684H82.1243V62.8026H82.3599C82.7721 61.6776 83.5181 60.7648 84.5977 60.0641C85.6774 59.3635 86.8944 59.0132 88.2489 59.0132C88.5041 59.0132 88.8231 59.0181 89.2059 59.028C89.5887 59.0378 89.8782 59.0526 90.0745 59.0724V62.625C89.9567 62.5954 89.6868 62.551 89.2648 62.4918C88.8525 62.4227 88.4158 62.3882 87.9545 62.3882C86.8552 62.3882 85.8737 62.6201 85.0099 63.0839C84.156 63.5378 83.4788 64.1694 82.9782 64.9786C82.4875 65.778 82.2421 66.6908 82.2421 67.7171V82.1053H78.7676Z" fill="#B4ADC7"/>
<path d="M102.692 82.5789C100.572 82.5789 98.7461 82.0757 97.2149 81.0691C95.6838 80.0625 94.506 78.676 93.6815 76.9095C92.8571 75.1431 92.4448 73.125 92.4448 70.8553C92.4448 68.5461 92.8669 66.5082 93.711 64.7418C94.5649 62.9655 95.7525 61.5789 97.2738 60.5822C98.805 59.5757 100.591 59.0724 102.633 59.0724C104.223 59.0724 105.656 59.3684 106.932 59.9605C108.208 60.5526 109.253 61.3816 110.068 62.4474C110.882 63.5132 111.388 64.7566 111.584 66.1776H108.11C107.845 65.1414 107.256 64.2237 106.343 63.4243C105.44 62.6151 104.223 62.2105 102.692 62.2105C101.337 62.2105 100.15 62.5658 99.1289 63.2763C98.1179 63.977 97.3278 64.9688 96.7585 66.2516C96.1991 67.5247 95.9194 69.0197 95.9194 70.7368C95.9194 72.4934 96.1942 74.023 96.7438 75.3257C97.3033 76.6283 98.0885 77.6398 99.0994 78.3602C100.12 79.0806 101.318 79.4408 102.692 79.4408C103.595 79.4408 104.414 79.2829 105.15 78.9671C105.887 78.6513 106.51 78.1974 107.02 77.6053C107.531 77.0132 107.894 76.3026 108.11 75.4737H111.584C111.388 76.8158 110.902 78.0247 110.127 79.1003C109.361 80.1661 108.345 81.0148 107.079 81.6464C105.823 82.2681 104.36 82.5789 102.692 82.5789Z" fill="#B4ADC7"/>
<path d="M120.138 68.4276V82.1053H116.663V51.7895H120.138V62.9211H120.432C120.962 61.7467 121.757 60.8141 122.817 60.1234C123.887 59.4227 125.311 59.0724 127.087 59.0724C128.628 59.0724 129.978 59.3832 131.136 60.0049C132.294 60.6168 133.192 61.5592 133.83 62.8322C134.478 64.0954 134.802 65.7039 134.802 67.6579V82.1053H131.327V67.8947C131.327 66.0888 130.861 64.6924 129.928 63.7056C129.006 62.7089 127.725 62.2105 126.086 62.2105C124.947 62.2105 123.927 62.4523 123.024 62.9359C122.13 63.4194 121.424 64.125 120.904 65.0526C120.393 65.9803 120.138 67.1053 120.138 68.4276Z" fill="#B4ADC7"/>
<path d="M141.158 82.1053V59.3684H144.633V82.1053H141.158ZM142.925 55.5789C142.248 55.5789 141.664 55.347 141.173 54.8832C140.692 54.4194 140.451 53.8618 140.451 53.2105C140.451 52.5592 140.692 52.0016 141.173 51.5378C141.664 51.074 142.248 50.8421 142.925 50.8421C143.602 50.8421 144.181 51.074 144.662 51.5378C145.153 52.0016 145.398 52.5592 145.398 53.2105C145.398 53.8618 145.153 54.4194 144.662 54.8832C144.181 55.347 143.602 55.5789 142.925 55.5789Z" fill="#B4ADC7"/>
<path d="M154.471 68.4276V82.1053H150.996V59.3684H154.353V62.9211H154.648C155.178 61.7664 155.983 60.8388 157.062 60.1382C158.142 59.4276 159.536 59.0724 161.243 59.0724C162.775 59.0724 164.114 59.3882 165.263 60.0197C166.411 60.6414 167.304 61.5888 167.942 62.8618C168.58 64.125 168.899 65.7237 168.899 67.6579V82.1053H165.425V67.8947C165.425 66.1086 164.963 64.7171 164.041 63.7204C163.118 62.7138 161.852 62.2105 160.242 62.2105C159.133 62.2105 158.142 62.4523 157.268 62.9359C156.405 63.4194 155.722 64.125 155.222 65.0526C154.721 65.9803 154.471 67.1053 154.471 68.4276Z" fill="#B4ADC7"/>
<path d="M184.376 91.1053C182.698 91.1053 181.255 90.8882 180.048 90.4539C178.841 90.0296 177.834 89.4671 177.03 88.7664C176.235 88.0757 175.602 87.3355 175.13 86.5461L177.898 84.5921C178.212 85.0066 178.61 85.4803 179.091 86.0132C179.572 86.5559 180.229 87.0247 181.064 87.4194C181.908 87.824 183.012 88.0263 184.376 88.0263C186.202 88.0263 187.708 87.5822 188.896 86.6941C190.084 85.8059 190.677 84.4145 190.677 82.5197V77.9013H190.383C190.128 78.3158 189.765 78.8289 189.294 79.4408C188.832 80.0428 188.165 80.5806 187.291 81.0543C186.428 81.5181 185.26 81.75 183.787 81.75C181.962 81.75 180.323 81.3158 178.87 80.4474C177.427 79.5789 176.284 78.3158 175.44 76.6579C174.605 75 174.188 72.9868 174.188 70.6184C174.188 68.2895 174.596 66.2615 175.41 64.5345C176.225 62.7977 177.358 61.4556 178.811 60.5082C180.264 59.551 181.942 59.0724 183.846 59.0724C185.318 59.0724 186.486 59.3191 187.35 59.8125C188.224 60.2961 188.891 60.8487 189.352 61.4704C189.824 62.0822 190.187 62.5855 190.442 62.9803H190.795V59.3684H194.152V82.7566C194.152 84.7105 193.71 86.2993 192.827 87.523C191.953 88.7566 190.776 89.6595 189.294 90.2319C187.821 90.8141 186.182 91.1053 184.376 91.1053ZM184.258 78.6118C185.652 78.6118 186.83 78.2911 187.792 77.6497C188.754 77.0082 189.485 76.0855 189.986 74.8816C190.486 73.6776 190.736 72.2368 190.736 70.5592C190.736 68.9211 190.491 67.4753 190 66.222C189.509 64.9688 188.783 63.9868 187.821 63.2763C186.859 62.5658 185.672 62.2105 184.258 62.2105C182.786 62.2105 181.559 62.5855 180.578 63.3355C179.606 64.0855 178.875 65.0921 178.384 66.3553C177.903 67.6184 177.663 69.0197 177.663 70.5592C177.663 72.1382 177.908 73.5345 178.399 74.7484C178.899 75.9523 179.636 76.8997 180.607 77.5905C181.589 78.2714 182.806 78.6118 184.258 78.6118Z" fill="#B4ADC7"/>
<path d="M57.5481 23.5535C57.3534 22.8281 57.0671 22.1891 56.6892 21.6365C56.3114 21.0724 55.8476 20.5946 55.298 20.2031C54.7483 19.8117 54.1185 19.5181 53.4086 19.3224C52.6986 19.1151 51.9199 19.0115 51.0726 19.0115C49.3664 19.0115 47.8892 19.426 46.6411 20.2549C45.4044 21.0839 44.4482 22.2928 43.7726 23.8816C43.097 25.4589 42.7592 27.3758 42.7592 29.6324C42.7592 31.9005 43.0856 33.8347 43.7383 35.435C44.391 37.0354 45.3357 38.2558 46.5724 39.0962C47.8091 39.9367 49.3091 40.3569 51.0726 40.3569C52.6299 40.3569 53.9468 40.1036 55.0231 39.597C56.111 39.0789 56.9354 38.3479 57.4965 37.4038C58.0576 36.4597 58.3382 35.3487 58.3382 34.0707L59.9184 34.2607H51.3646V28.0263H66.5313V32.7064C66.5313 35.8725 65.8614 38.5839 64.5216 40.8405C63.1933 43.097 61.3612 44.8298 59.0252 46.0387C56.7007 47.2475 54.0269 47.852 51.0039 47.852C47.6488 47.852 44.7002 47.1209 42.1581 45.6587C39.616 44.1965 37.635 42.1127 36.2151 39.4071C34.7952 36.69 34.0852 33.4663 34.0852 29.736C34.0852 26.8347 34.5146 24.2615 35.3734 22.0164C36.2322 19.7599 37.4289 17.8487 38.9633 16.2829C40.5091 14.7171 42.2955 13.5313 44.3223 12.7253C46.3605 11.9194 48.5534 11.5164 50.9008 11.5164C52.9391 11.5164 54.8342 11.81 56.5862 12.3972C58.3496 12.9844 59.9069 13.8133 61.2581 14.884C62.6208 15.9548 63.7258 17.227 64.5732 18.7007C65.4205 20.1743 65.9473 21.7919 66.1534 23.5535H57.5481Z" fill="#31AAAA"/>
<path d="M73.1957 47.3684V20.8421H81.5949V47.3684H73.1957ZM77.4039 17.7508C76.2244 17.7508 75.211 17.3594 74.3637 16.5765C73.5163 15.7821 73.0926 14.8265 73.0926 13.7097C73.0926 12.6044 73.5163 11.6604 74.3637 10.8775C75.211 10.0831 76.2244 9.68586 77.4039 9.68586C78.5948 9.68586 79.6082 10.0831 80.4441 10.8775C81.2915 11.6604 81.7151 12.6044 81.7151 13.7097C81.7151 14.8265 81.2915 15.7821 80.4441 16.5765C79.6082 17.3594 78.5948 17.7508 77.4039 17.7508Z" fill="#31AAAA"/>
<path d="M101.833 20.8421V27.0592H85.1891V20.8421H101.833ZM88.6758 14.4868H97.0751V39.0271C97.0751 39.5452 97.1552 39.9655 97.3156 40.2878C97.4873 40.5987 97.7335 40.8232 98.0541 40.9613C98.3748 41.088 98.7584 41.1513 99.2049 41.1513C99.5256 41.1513 99.8634 41.1225 100.218 41.065C100.585 40.9959 100.86 40.9383 101.043 40.8923L102.314 46.9885C101.913 47.1036 101.346 47.2475 100.613 47.4202C99.892 47.5929 99.0275 47.7023 98.0198 47.7484C96.0502 47.8405 94.3612 47.6102 92.9528 47.0576C91.5558 46.4934 90.4851 45.6184 89.7408 44.4326C89.0079 43.2467 88.653 41.7558 88.6758 39.9597V14.4868Z" fill="#31AAAA"/>
<path d="M115.084 32.2401V47.3684H106.685V12H114.81V25.7122H115.102C115.697 24.0773 116.67 22.7993 118.022 21.8783C119.384 20.9572 121.05 20.4967 123.02 20.4967C124.875 20.4967 126.49 20.9112 127.864 21.7401C129.238 22.5576 130.303 23.7146 131.058 25.2113C131.826 26.7081 132.204 28.4581 132.192 30.4613V47.3684H123.793V32.1192C123.804 30.6456 123.438 29.4942 122.694 28.6653C121.949 27.8364 120.902 27.4219 119.55 27.4219C118.669 27.4219 117.89 27.6176 117.214 28.009C116.55 28.389 116.029 28.9359 115.651 29.6497C115.285 30.3635 115.096 31.227 115.084 32.2401Z" fill="#31AAAA"/>
<path d="M154.457 35.9186V20.8421H162.839V47.3684H154.835V42.4293H154.56C153.976 44.0526 152.98 45.3421 151.571 46.2977C150.174 47.2418 148.485 47.7138 146.504 47.7138C144.706 47.7138 143.126 47.2993 141.764 46.4704C140.401 45.6414 139.342 44.4844 138.586 42.9992C137.83 41.5025 137.447 39.7525 137.435 37.7492V20.8421H145.834V36.0913C145.846 37.5304 146.224 38.6645 146.968 39.4934C147.712 40.3224 148.726 40.7368 150.008 40.7368C150.844 40.7368 151.594 40.5526 152.258 40.1842C152.934 39.8043 153.466 39.2574 153.856 38.5436C154.257 37.8183 154.457 36.9433 154.457 35.9186Z" fill="#31AAAA"/>
<path d="M168.185 47.3684V12H176.584V25.384H176.756C177.1 24.5781 177.586 23.801 178.216 23.0526C178.857 22.3043 179.67 21.6941 180.655 21.222C181.651 20.7385 182.842 20.4967 184.228 20.4967C186.06 20.4967 187.772 20.9803 189.363 21.9474C190.967 22.9145 192.261 24.4054 193.245 26.4202C194.23 28.435 194.723 31.0025 194.723 34.1225C194.723 37.1275 194.247 39.6431 193.297 41.6694C192.358 43.6957 191.087 45.2155 189.484 46.2286C187.892 47.2418 186.123 47.7484 184.176 47.7484C182.848 47.7484 181.697 47.5296 180.724 47.0921C179.75 46.6546 178.932 46.0789 178.268 45.3651C177.615 44.6513 177.111 43.8857 176.756 43.0683H176.498V47.3684H168.185ZM176.413 34.1053C176.413 35.5329 176.601 36.7763 176.979 37.8355C177.369 38.8947 177.924 39.7179 178.645 40.3051C179.378 40.8808 180.254 41.1686 181.273 41.1686C182.304 41.1686 183.18 40.8808 183.901 40.3051C184.623 39.7179 185.167 38.8947 185.533 37.8355C185.911 36.7763 186.1 35.5329 186.1 34.1053C186.1 32.6776 185.911 31.44 185.533 30.3923C185.167 29.3446 184.623 28.5329 183.901 27.9572C183.191 27.3816 182.315 27.0938 181.273 27.0938C180.243 27.0938 179.367 27.3758 178.645 27.94C177.924 28.5041 177.369 29.31 176.979 30.3577C176.601 31.4054 176.413 32.6546 176.413 34.1053Z" fill="#31AAAA"/>
<path d="M213.85 0V96H202.288V0H213.85Z" fill="white"/>
<path d="M266.497 96H237.033V0H267.803C277.065 0 284.991 1.92188 291.58 5.76563C298.169 9.57812 303.22 15.0625 306.732 22.2188C310.244 29.3438 312 37.875 312 47.8125C312 57.8125 310.228 66.4219 306.685 73.6406C303.142 80.8281 297.982 86.3594 291.207 90.2344C284.431 94.0781 276.195 96 266.497 96ZM248.595 85.6875H265.752C273.646 85.6875 280.189 84.1562 285.379 81.0938C290.57 78.0312 294.439 73.6719 296.988 68.0156C299.537 62.3594 300.811 55.625 300.811 47.8125C300.811 40.0625 299.552 33.3906 297.035 27.7969C294.517 22.1719 290.756 17.8594 285.752 14.8594C280.748 11.8281 274.516 10.3125 267.057 10.3125H248.595V85.6875Z" fill="white"/>
</svg>
